<?xml version="1.0" ?><svg id="Layer_1" style="enable-background:new 0 0 53 53;" version="1.1" viewBox="0 0 53 53" xml:space="preserve" xmlns="http://www.w3.org/2000/svg" xmlns:xlink="http://www.w3.org/1999/xlink"><style type="text/css">
	.st0{enable-background:new    ;}
	.st1{fill:#2C9A2C;}
	.st2{fill:#5B5E71;}
	.st3{fill:#6DCB60;}
	.st4{fill:#3DB542;}
	.st5{fill:#21201F;}
	.st6{fill:#2D2C2B;}
	.st7{fill:#434240;}
	.st8{fill:#81D672;}
	.st9{fill:#ECF0F1;}
	.st10{fill:#E9E8E6;}
	.st11{fill:#383736;}
	.st12{fill:#FF9C00;}
	.st13{fill:#FFD651;}
	.st14{opacity:0.2;}
	.st15{fill:#F25A5A;}
	.st16{fill:#FFFFFF;}
	.st17{fill:#D6D4D2;}
	.st18{fill:#C4C2C0;}
	.st19{fill:#B2B0AF;}
	.st20{fill:#EFC348;}
	.st21{fill:#3F9AE0;}
	.st22{fill:#343331;}
	.st23{opacity:0.3;}
	.st24{fill:#0074D1;}
	.st25{fill:#DDB040;}
	.st26{fill:#F2F2F2;}
	.st27{fill:#A0A8AA;}
	.st28{fill:#8D9799;}
	.st29{fill:#CEA03A;}
	.st30{opacity:0.25;fill:#FFFFFF;}
	.st31{fill:#909293;}
	.st32{fill:#006CB5;}
	.st33{fill:#DD4A4A;}
	.st34{fill:#CC4848;}
	.st35{fill:#C9C8C6;}
	.st36{fill:#B5E5F4;}
	.st37{fill:#005E87;}
	.st38{opacity:0.4;}
	.st39{fill:#41403E;}
	.st40{fill:none;}
	.st41{fill:#464957;}
	.st42{fill:#BB4545;}
	.st43{fill:#A2A4A5;}
	.st44{fill:#CFD2D3;}
	.st45{fill:#FFE2A9;}
	.st46{fill:#B6B9BA;}
	.st47{fill:#C44141;}
	.st48{fill:#82C6E0;}
	.st49{fill:#FC7E7E;}
	.st50{fill:#D4D6D6;}
	.st51{opacity:0.25;}
	.st52{fill:#1E1E1D;}
	.st53{fill:#B4B3B1;}
	.st54{fill:#D4DAE8;}
	.st55{fill:#416E84;}
	.st56{fill:#474B59;}
	.st57{fill:#7E8A8C;}
	.st58{fill:#6D797A;}
	.st59{fill:#88722B;}
	.st60{fill:#7D7C7B;}
	.st61{fill:#C5A00C;}
	.st62{opacity:0.3;fill:#748BFD;}
	.st63{fill:#414143;}
	.st64{opacity:0.6;}
	.st65{fill:#EFAC41;}
	.st66{fill:#FED57A;}
	.st67{opacity:0.5;}
	.st68{fill:#32586B;}
	.st69{opacity:0.7;fill:#B5E5F4;}
	.st70{fill:#494846;}
	.st71{fill:#B8B6B5;}
	.st72{opacity:0.15;fill:#E9E8E6;}
	.st73{fill:#E63044;}
	.st74{fill:#6EBA6E;}
	.st75{fill:#FA5168;}
	.st76{fill:#BAC1CE;}
	.st77{opacity:0.15;}
	.st78{fill:#0E90D8;}
	.st79{fill:#6C6F76;}
	.st80{fill:#787979;}
	.st81{fill:#5B6868;}
	.st82{fill:#4562EF;}
	.st83{fill:#576CFB;}
	.st84{fill:#748BFD;}
	.st85{fill:#F1C40F;}
	.st86{fill:#00649B;}
	.st87{fill:#898887;}
	.st88{fill:#813030;}
	.st89{opacity:0.5;fill:#82C6E0;}
	.st90{opacity:0.1;}
	.st91{opacity:0.15;fill:#FFFFFF;}
	.st92{clip-path:url(#SVGID_2_);enable-background:new    ;}
	.st93{opacity:0.2;fill:#FFFFFF;}
	.st94{fill:#F9BB4A;}
	.st95{fill:#4C7891;}
	.st96{opacity:0.3;fill:#FFFFFF;}
	.st97{fill:#D14E4E;}
	.st98{fill:#518696;}
	.st99{fill:#C3A12E;}
	.st100{fill:#3F434F;}
	.st101{fill:#363A44;}
	.st102{fill:#75CA75;}
	.st103{fill:#E4E8F4;}
	.st104{fill:#506A47;}
	.st105{fill:#3A3937;}
	.st106{fill:#C5A53E;}
	.st107{fill:#D4D2D0;}
	.st108{fill:#B8B7B5;}
	.st109{fill:#A5A4A2;}
	.st110{fill:#0059A1;}
	.st111{fill:#0070CA;}
	.st112{fill:#0064B4;}
	.st113{fill:#989694;}
	.st114{fill:#F34858;}
	.st115{opacity:0.1;fill:#FFFFFF;}
	.st116{fill:#8A9193;}
	.st117{fill:#B4B3B2;}
	.st118{fill:#3B3A38;}
	.st119{fill:#242322;}
</style><g><g><g><g><g><g><path class="st5" d="M31.8144093,41.3433189c-0.0078983,1.0021362-0.3471928,1.704422-0.8995533,2.0279198        l-3.8980179,2.2567329c0.5523605-0.3155975,0.7497692-0.9813614,0.7497692-1.9834518        c0.0078983-1.9332352-1.1206112-4.2975311-2.7066536-5.2128792c-0.7732754-0.4418793-1.4676609-0.4813232-1.9884758-0.1814728        l3.8901672-2.2567329c0.5207653-0.3077507,1.2230511-0.2683067,1.9884281,0.1735725        C30.5361156,37.0823555,31.8223076,39.4022293,31.8144093,41.3433189z"/><path class="st5" d="M15.3043852,31.6915092c-0.0077801,0.9871368-0.3419971,1.6789131-0.8860893,1.99757L10.57862,35.9120369        c0.5440931-0.3108788,0.7385464-0.9666748,0.7385464-1.9537659c0.007781-1.9043007-1.103837-4.2332096-2.6661406-5.134861        c-0.7617021-0.4352646-1.4456959-0.4741173-1.9587154-0.1787548l3.8319426-2.2229576        c0.5129719-0.3031425,1.2047472-0.2642899,1.9586678,0.1709747        C14.0452251,27.4943237,15.3121653,29.7794743,15.3043852,31.6915092z"/><g><g class="st0"><g><path class="st10" d="M23.8573895,13.0679951c-5.3999538,3.1380768-10.799531,6.2760353-16.1994839,9.4141121           c-0.2005177,0.1092396-1.0348229-0.3049812-1.9628253-0.8407631           c-1.38938-0.8021584-2.9091282-1.8231678-2.989115-1.8769054l16.199482-9.4141102           c0.0799885,0.0537357,1.5997372,1.0747452,2.9891167,1.8769045           C22.8225651,12.7630157,23.6568718,13.1772356,23.8573895,13.0679951z"/></g><g><path class="st7" d="M4.6938095,16.9435177L20.8932896,7.529407c0.1732941,0.26332,3.4658184,5.2664113,2.9640789,5.53859           L7.6578841,22.4821091C8.1596241,22.2099304,4.8671002,17.2068386,4.6938095,16.9435177z"/></g><g><path class="st7" d="M4.6938095,16.9435177c0.1732907,0.2633209,3.4658146,5.2664127,2.9640756,5.5385914           c-0.2005177,0.1092358-1.0348134-0.3049812-1.9628124-0.8407631           c-1.3893757-0.8021564-2.9091306-1.8231659-2.9891176-1.8769035           C3.2549417,17.9913864,4.6218657,16.9959106,4.6938095,16.9435177z"/><path class="st11" d="M7.3455758,22.1287212c-0.2290401-0.0829124-0.669332-0.2820244-1.4941826-0.758276           c-1.1124482-0.6422291-2.2992587-1.4189796-2.7728376-1.7333755           c0.4073863-1.1238251,1.1465755-1.8845444,1.5432734-2.2328377           C6.0252352,19.5556831,7.1024876,21.4298439,7.3455758,22.1287212z"/></g><g><path class="st10" d="M23.3795795,9.363286c-0.0410385,0.0237045-0.0694942,0.0571079-0.0828018,0.1017504           c-5.3999538,3.1380777-10.799531,6.2760363-16.1994839,9.4141121           c0.0133076-0.0446434,0.0417643-0.0780468,0.0828028-0.1017513           C12.0399399,15.9531641,18.5197334,12.18752,23.3795795,9.363286z"/></g><g><path class="st10" d="M23.3726807,9.7973318c0.6166077,1.1832647,3.1978989,5.2473068,8.6377449,8.6879034           l-16.1994858,9.4141121c-5.4398432-3.4405975-8.0211353-7.5046406-8.637743-8.6879044           c-0.0773988-0.148222-0.0985041-0.2564716-0.0759025-0.3322964           c5.3999519-3.1380739,8.9758768-9.4141083,16.199482-9.4141083           C23.2741776,9.5408611,23.2952824,9.6491098,23.3726807,9.7973318z"/></g><g><polygon class="st10" points="15.8109417,27.8993454 32.0104256,18.4852352 32.8647575,19.0566158 16.6652756,28.470726                     "/></g><g><path class="st7" d="M7.1795707,18.7777119l16.199482-9.4141102           c0.4444599-0.2582932,2.3736362,0.6276627,2.4987316,0.685112c0.9595947,0.4276333,2.5776062,1.277194,4.257555,2.2471132           l-16.199482,9.4141111c-1.6799488-0.9699192-3.2979603-1.819479-4.257555-2.2471142           C9.5532064,19.4053745,7.6240292,18.5194206,7.1795707,18.7777119z"/></g><g><path class="st17" d="M3.9762447,16.101778l16.199482-9.4141102           c4.791914,1.9212823,8.3957062,3.7524819,10.9786949,5.243772l-16.199482,9.4141111           C12.3719482,19.8542614,8.7681561,18.0230598,3.9762447,16.101778z"/></g><g><polygon class="st7" points="19.9596119,25.086216 36.1590958,15.6721048 36.4744987,15.519845 20.2750168,24.9339561                     "/></g><g><path class="st10" d="M36.3813667,15.8845387c-5.3999519,3.1380768-10.7995281,6.2760372-16.199482,9.4141121           c-0.0743465-0.0719337-0.1484909-0.1428528-0.2219334-0.212122           c5.3899422-3.1322575,10.7795086-6.2643986,16.1694508-9.396656           c-5.3899422,3.1322575-10.7795086,6.2643986-16.1694508,9.396656           c-0.0001087-0.0001049-0.0002193-0.0002079-0.00033-0.0003128l16.199482-9.4141102           C36.2326546,15.7414732,36.3069115,15.812499,36.3813667,15.8845387z"/></g><g><path class="st10" d="M36.3813667,15.8845387c0.0009232,0.0008917,0.0018463,0.0017843,0.0027695,0.002677           c-5.3999538,3.1380777-10.79953,6.2760363-16.1994839,9.414113           c-0.0009232-0.0008945-0.0018444-0.0017872-0.0027676-0.0026798           C25.5818386,22.1605759,30.9814148,19.0226154,36.3813667,15.8845387z"/></g><g><path class="st17" d="M14.9549379,21.3455505l16.199482-9.4141111           c3.7155514,2.145175,5.2398663,3.5151606,5.3200932,3.587265l-16.1994839,9.4141111           C20.1948032,24.8607101,18.6704903,23.4907246,14.9549379,21.3455505z"/></g><g><polygon class="st10" points="16.6652756,28.470726 32.8647575,19.0566158 42.4573555,24.5949039 26.2578716,34.0090141                     "/></g><g><path class="st10" d="M42.4573555,24.5949039c0.0497017,0.0286961,0.0906677,0.0302258,0.1199837,0.0131989           L26.3778534,34.022213c-0.0293121,0.0170288-0.0702782,0.0154991-0.1199818-0.0131989           C31.1177139,31.1847839,37.5975075,27.419138,42.4573555,24.5949039z"/></g><g><path class="st7" d="M13.9358568,21.709938c2.0160704,1.1639786,4.1212435,2.5012779,5.2834826,3.4900589           c1.8214779,1.5491333,5.8395405,6.7150307,7.1363564,8.5093231           c0.1364555,0.1890869,0.0678749,0.3953819-0.0978413,0.2997055l-9.592598-5.53829l-0.8543234-0.5713825           c-5.4398489-3.4405861-8.0211353-7.5046272-8.6377382-8.6878948           c-0.6176009-1.1827068,2.3489714,0.1796627,2.5051069,0.2513657           C10.6378965,19.8904591,12.255908,20.7400188,13.9358568,21.709938z"/></g><g><path class="st10" d="M23.9566631,29.4908981c4.0985184-2.3817692,8.1967487-4.7634563,12.2952671-7.1452274           c-4.0982513,2.3818779-8.1948547,4.7659683-12.293108,7.1478462           C23.9581032,29.4926434,23.9573841,29.4917698,23.9566631,29.4908981z"/></g><g><path class="st10" d="M40.1583061,20.0794048c1.591011,1.937479,2.9820595,3.8002071,3.6577682,4.7214699           c-5.3999557,3.1380787-10.7995338,6.2760372-16.1994858,9.414114           c-0.6757069-0.9212646-2.0667553-2.7839928-3.6577644-4.7214737           c5.3976498-3.1370773,10.7935143-6.276413,16.1913147-9.4132366           c-5.3979492,3.1369114-10.7955265,6.2737083-16.1934757,9.4106197           c-1.9414845-2.3510246-3.2687359-3.6983795-3.7720108-4.1895714           c5.3999538-3.1380749,10.79953-6.2760334,16.1994839-9.4141092           C36.8875961,16.3785896,38.2156448,17.7267628,40.1583061,20.0794048z"/></g><g><path class="st10" d="M43.8212852,24.8080006c-5.3999557,3.1380768-10.7995338,6.2760353-16.1994858,9.4141102           c-0.0014858-0.0020332-0.0029716-0.0040665-0.0044575-0.0060997           c-0.0002518-0.0003433-0.0005016-0.0006828-0.0007515-0.0010262           c5.39995-3.138073,10.7995281-6.2760315,16.1994801-9.4141083           c0.0002518,0.0003395,0.0005035,0.0006809,0.0007553,0.0010223           C43.8183098,24.8039322,43.8197975,24.8059654,43.8212852,24.8080006z"/></g><g><path class="st10" d="M44.2432976,25.388895c-5.3999557,3.1380787-10.7995338,6.2760372-16.1994877,9.414114           c-0.1421833-0.1969452-0.2827911-0.390461-0.4220085-0.5808983           c5.39995-3.1380749,8.9758739-9.4141102,16.1994801-9.4141102           C43.9605026,24.9984379,44.1011086,25.1919537,44.2432976,25.388895z"/></g><g><path class="st10" d="M44.2432976,25.388895c0.0025482,0.0035305,0.0050964,0.0070629,0.0076447,0.0105953           l-16.199482,9.4141121c-0.0025501-0.0035324-0.0050983-0.0070648-0.0076485-0.0105972           C33.4437637,31.6649323,38.8433418,28.5269737,44.2432976,25.388895z"/></g><g><polygon class="st10" points="28.0514603,34.8136024 44.2509422,25.3994904 45.2653999,25.916256 29.0659142,35.330368                     "/></g><g><path class="st10" d="M20.2750168,24.9339561l16.199482-9.4141102           c2.6961517,2.8788719,5.6515541,6.4083557,8.7893829,10.394495L29.064394,35.3284531           C25.926569,31.3423138,22.9711666,27.81283,20.2750168,24.9339561z"/><path class="st7" d="M44.3258057,25.7364883l-7.8976517,4.5891266l-3.1693726,1.8419037l-1.0882568,0.6316719           l-2.9504776,1.7152443c-0.6426296-0.8114891-1.2664967-1.591732-1.8762989-2.3422394           c-2.2249718-2.7472057-4.2326145-5.087883-6.0776405-7.0908394l8.2682209-4.804882l5.5335159-3.2147331           l1.0866814-0.6332493l0.2032738-0.1172676c0.7082977,0.7630272,1.440052,1.5792217,2.1983948,2.4485741           C40.3167801,20.7736816,42.2259178,23.0830936,44.3258057,25.7364883z"/></g><g><path class="st18" d="M20.2750168,24.9339561c2.6961498,2.8788738,5.6515522,6.4083576,8.7893791,10.3944931           l-1.0129528-0.5148392c-0.1463108-0.2027092-0.290947-0.4017868-0.4341221-0.5976067           c-1.3773785-1.8838501-2.6077728-3.4500256-3.6584988-4.7224827           c-1.9426651-2.3526249-3.2707214-3.7008114-3.7741814-4.1921864           c-0.1482201-0.1446629-0.2211876-0.2115955-0.225029-0.2151184L20.2750168,24.9339561z"/></g><g><path class="st17" d="M49.8433495,36.7954216l-16.199482,9.4141121           c0.5791397-0.3365593,0.6470604-1.4398384,0.6506958-2.4233665l16.1994858-9.4141083           C50.4904099,35.3555832,50.422493,36.4588623,49.8433495,36.7954216z"/></g><g><polygon class="st17" points="34.3005104,41.6880836 50.4999962,32.2739716 50.4940491,34.3720589 34.2945633,43.7861671                     "/></g><g><polygon class="st10" points="29.0659142,35.330368 45.2653999,25.916256 49.9944077,31.080122 33.7949257,40.4942322                     "/></g><g><path class="st18" d="M34.3001213,41.6881485l-0.0062523,2.0983353           c-0.0031281,1.160183-0.0969391,2.4876633-1.0147629,2.5251884           c-0.2329788,0.0093689-0.4987831-0.0813103-0.7630272-0.234539l-3.6384563-2.1264877l-7.6724968-4.4812088           l-16.3628731-9.561306l-2.0138938-1.5198154C2.6407261,28.255434,2.5,27.9911785,2.5,27.772274l0.0062604-2.4172916           l0.0015557-0.6504555l0.0031302-1.0694828l0.0031302-1.0788765l0.0046856-1.876297           c0.0328388-0.3252182,0.0985065-0.6269989,0.1876318-0.9146919           c0.0797441,0.0531559,1.5995409,1.0741806,2.9880021,1.8762989           c0.9287677,0.5362968,1.7637243,0.9491043,1.9638577,0.8412075           c0.5019131-0.2720623-2.7909889-5.2755222-2.9645443-5.5397682l-0.7176881-0.8412075           c4.7923808,1.9216385,8.3964348,3.7526035,10.979475,5.2442474           c3.7150707,2.1452293,5.239563,3.5149288,5.3192978,3.5868664l-0.3158379,0.1532288           c0.0750504,0.0703526,0.1500988,0.142271,0.2251568,0.2157555           c0.5034695,0.4909859,1.8325138,1.8387737,3.7744789,4.1919708           c1.5917339,1.9372807,2.9833164,3.801075,3.6587849,4.7220078c0.1438465,0.1954498,0.2877026,0.3955917,0.434679,0.5973015           l1.0131989,0.5175514l4.7298317,5.1629524C34.1031075,40.8313103,34.3016853,41.2988205,34.3001213,41.6881485z"/></g><g><path class="st17" d="M33.7949257,40.4942322l16.199482-9.4141102           c0.3080368,0.3363838,0.506691,0.8049793,0.5055885,1.1938496l-16.1994858,9.4141121           C34.3016129,41.2992134,34.1029625,40.830616,33.7949257,40.4942322z"/></g></g></g><path class="st7" d="M26.2578716,34.0090141c0.1657009,0.0956688,0.2342796-0.1106071,0.097826-0.2996979        c-1.2968025-1.7942944-5.3148746-6.9601841-7.1363354-8.5093212c-1.1622543-0.988781-3.2674198-2.326086-5.2834921-3.4900665        c-1.6799479-0.9699192-3.2979736-1.8194733-4.2575617-2.2471066c-0.1561346-0.071703-3.1226978-1.4340858-2.5051112-0.251379        c0.6166067,1.1832638,3.1978993,5.2473068,8.6377449,8.6879025l0.8543339,0.5713806L26.2578716,34.0090141"/><g><path class="st18" d="M15.8968763,22.7747974l0.8694429,0.5260983l0.8539619,6.1620331l-0.7395439-0.4947681         c-0.2704983-0.1711006-0.533987-0.3439217-0.7894802-0.5167084L15.8968763,22.7747974z"/></g><path class="st19" d="M28.9276581,43.6082306c0,0.1313362,0,0.2470589-0.0140762,0.3627625l-0.0359592-0.0203476        l-7.6724968-4.4812088c0.2001438-1.1836433,0.8318272-1.9013214,1.6026726-2.2281036        c0.3346081-0.1313553,0.6676521-0.2048378,1.0178928-0.2048378c0.5660152,0,1.1476727,0.1751213,1.7293205,0.5097275        c1.3665676,0.7989883,2.5298729,2.3985481,3.0521145,4.0997086        C28.8260212,42.2995148,28.9276581,42.9687119,28.9276581,43.6082306z"/><path class="st7" d="M25.0518074,38.4304848c1.5869675,0.9162369,2.8671722,3.2325478,2.8616753,5.1718597        c-0.0054989,1.939312-1.2946148,2.7664223-2.8815823,1.8501854c-1.5869694-0.9162331-2.8772697-3.2325745-2.8717709-5.1718864        C22.1656265,38.3413315,23.464838,37.5142479,25.0518074,38.4304848z"/><ellipse class="st10" cx="25.0367985" cy="41.9410667" rx="1.959031" ry="3.3821516" transform="matrix(0.8646044 -0.5024531 0.5024531 0.8646044 -17.6835499 18.2584534)"/><g><g><path class="st11" d="M24.3108864,42.1816177c-0.0154858-0.0089378-0.0314465-0.0153503-0.0475559-0.0186119          l-0.9720154-0.209198c0.1874046,0.5306015,0.4871635,1.0497932,0.8548183,1.4776573l0.3064499-0.9406624          C24.4858894,42.3936195,24.4082031,42.2378235,24.3108864,42.1816177z"/></g></g><g><g><path class="st11" d="M23.1814861,40.1945038c-0.0643272,0.1813927-0.0981236,0.3965492-0.0988121,0.6396179          c-0.0006905,0.2430611,0.0317822,0.4950142,0.0948677,0.7514305l0.9037399-0.0208931          c0.1097717-0.0011559,0.1102772-0.1797905,0.0008717-0.3074875L23.1814861,40.1945038z"/></g></g><g><g><path class="st11" d="M24.1574783,39.4497299c-0.3701534,0.0018883-0.6718712,0.1738281-0.8603935,0.4888535          l0.9700279,0.9105759c0.0160656,0.0153122,0.0320282,0.0273247,0.0475063,0.0362625          c0.0973148,0.0561829,0.1756401-0.0095482,0.1429825-0.1448135L24.1574783,39.4497299z"/></g></g><g><g><path class="st11" d="M25.0425339,39.717247c-0.2115345-0.1221313-0.4155312-0.2017746-0.6056061-0.2396393          l0.4685497,1.3103752c0.0278568,0.079155,0.0806465,0.1411629,0.1335354,0.1716995          c0.0528793,0.030529,0.1058559,0.0295868,0.1340694-0.0171967l0.4744263-0.7659492          C25.4565716,39.9944267,25.2540627,39.8393707,25.0425339,39.717247z"/></g></g><g><g><path class="st11" d="M25.7565784,43.0162888c-0.0968418-0.0559082-0.1735668,0.010746-0.1431141,0.1447487          l0.3026733,1.2923431c0.3676052-0.0033646,0.669323-0.175293,0.8591099-0.4881248l-0.9712925-0.9127693          C25.7878895,43.0371704,25.7719784,43.0251808,25.7565784,43.0162888z"/></g></g><g><g><path class="st11" d="M25.0333271,42.9448967c-0.0528889-0.0305367-0.105854-0.030323-0.1340637,0.0149994          l-0.4744358,0.7659454c0.1896667,0.1813698,0.3934479,0.3371544,0.6049843,0.4592857          c0.2115269,0.1221237,0.4142532,0.2010345,0.6055965,0.2396431l-0.4685402-1.3103714          C25.1390076,43.036705,25.0862064,42.9754257,25.0333271,42.9448967z"/></g></g><g><g><path class="st11" d="M25.9274826,40.4716415l-0.3089981,0.9392014          c-0.0311127,0.0984383,0.0449848,0.2533379,0.1418171,0.3092422          c0.0154076,0.0088959,0.0313263,0.0152931,0.0474339,0.0185547l0.9732819,0.2113914          C26.5961742,41.419445,26.2964172,40.9002457,25.9274826,40.4716415z"/></g></g><g><g><path class="st11" d="M26.8960705,42.3190231l-0.9062901,0.0194206          c-0.1072216,0.0026283-0.1077271,0.181263-0.0008717,0.3074875l0.9032173,1.0641403          c0.0630608-0.1835861,0.0981236-0.3965454,0.0988121-0.6396065          C26.9916286,42.8273926,26.9578896,42.573246,26.8960705,42.3190231z"/></g></g><path class="st19" d="M4.8427911,29.9074306c2.1471186,1.2360535,5.9960256,3.4517918,5.7708297,3.3221531        l1.5465374,0.8931923l0.2863216,0.1574936c0.0143337-0.1145782,0.0143337-0.2290726,0.0143337-0.3579865        c0-0.6300659-0.1002474-1.2887993-0.3149881-1.9331093c-0.5154839-1.6754532-1.6611195-3.2505703-3.007163-4.0381298        c-0.5727301-0.3294086-1.1455479-0.5012379-1.7040324-0.5012379c-0.3436556,0-0.6729779,0.0716686-1.0022998,0.2004967        C5.6590171,27.9796238,5.0289526,28.7045498,4.8427911,29.9074306z"/><path class="st7" d="M8.6430006,28.8222733c1.5632153,0.902523,2.8242598,3.184166,2.8188438,5.0944519        s-1.275238,2.7250175-2.8384533,1.8224945s-2.8342047-3.1841927-2.8287888-5.0944786        C5.8000178,28.7344532,7.0797844,27.9197502,8.6430006,28.8222733z"/><ellipse class="st10" cx="8.6282167" cy="32.2803116" rx="1.9297099" ry="3.3315303" transform="matrix(0.8646044 -0.5024531 0.5024531 0.8646044 -15.0511217 8.7058859)"/><g><g><path class="st11" d="M7.8663254,32.4989281l-0.9574676-0.2060661          c0.1846004,0.5226631,0.4798717,1.0340805,0.8420238,1.4555435l0.3018632-0.9265862          C8.0907898,32.7108154,7.9818654,32.5223312,7.8663254,32.4989281z"/></g></g><g><g><path class="st11" d="M6.8006725,30.5598907c-0.1476717,0.4164181-0.1094427,0.9411755-0.0038848,1.3702297          l0.8902135-0.0205803c0.1081276-0.0011406,0.1086264-0.1771011,0.0008588-0.302887L6.8006725,30.5598907z"/></g></g><g><g><path class="st11" d="M7.7620568,29.8262615c-0.364614,0.0018616-0.6618156,0.1712284-0.8475151,0.4815369          l0.9555087,0.8969498c0.0158248,0.0150833,0.0315485,0.0269146,0.0467944,0.035717          c0.09586,0.0553455,0.1730113-0.0094032,0.1408439-0.1426468L7.7620568,29.8262615z"/></g></g><g><g><path class="st11" d="M8.6338663,30.089777c-0.2083693-0.1203041-0.4093122-0.1987534-0.5965414-0.2360535          l0.4615364,1.2907658c0.0274382,0.0779667,0.0794392,0.1390476,0.1315355,0.1691265          c0.0520887,0.0300732,0.1042728,0.0291424,0.1320639-0.0169392l0.4673262-0.7544842          C9.041707,30.3628063,8.8422279,30.2100735,8.6338663,30.089777z"/></g></g><g><g><path class="st11" d="M9.1962519,33.4820251l0.2981424,1.2729988          c0.3621035-0.003315,0.6593046-0.1726685,0.8462515-0.4808197l-0.9567556-0.8991089          C9.2685242,33.2651329,9.1614914,33.3290672,9.1962519,33.4820251z"/></g></g><g><g><path class="st11" d="M8.6247969,33.2691193c-0.0520964-0.0300789-0.1042709-0.0298691-0.1320572,0.0147743          l-0.4673347,0.7544823c0.3260527,0.3117828,0.7555618,0.6003075,1.192462,0.6884651l-0.4615278-1.29076          C8.7288961,33.3595543,8.6768856,33.2991905,8.6247969,33.2691193z"/></g></g><g><g><path class="st11" d="M9.5055695,30.83288l-0.3043747,0.9251423          c-0.0306454,0.0969677,0.0443125,0.2495461,0.1396961,0.304615          c0.0151777,0.0087624,0.0308571,0.0150642,0.0467243,0.0182762l0.9587145,0.2082291          C10.1642532,31.7664986,9.8689823,31.2550678,9.5055695,30.83288z"/></g></g><g><g><path class="st11" d="M10.4596596,32.6526108l-0.892725,0.0191307          c-0.1056156,0.0025902-0.1061144,0.1785507-0.0008583,0.302887l0.889699,1.048214          c0.0621166-0.1808395,0.0966549-0.3906136,0.0973339-0.6300354          C10.5537872,33.1533737,10.5205536,32.9030304,10.4596596,32.6526108z"/></g></g></g><g><g><polygon class="st13" points="3.8431208,25.0077782 3.8415556,25.6582146 2.5062604,24.8873787 2.5078161,24.2369232                 "/></g><g><polygon class="st15" points="3.8493717,22.8578529 3.8431208,25.0077782 2.5078161,24.2369232 2.5109463,23.1674404          2.5140765,22.0885639        "/></g></g><g><g><polygon class="st7" points="7.9382329,23.825489 9.2634802,24.5911121 9.2624817,25.0544777 7.9367352,24.2893543                 "/><polygon class="st7" points="18.9389858,30.1766777 18.9379864,30.6405373 17.6122398,29.8749142 17.613739,29.4115486                 "/></g></g></g><g class="st77"><path class="st16" d="M35.0678444,17.0617409l-2.8973198,15.7374496l-2.9504776,1.7152443       c-0.6426296-0.8114891-1.2664967-1.591732-1.8762989-2.3422394l2.1905804-11.8957214L35.0678444,17.0617409z"/><path class="st16" d="M38.5561943,18.759798L36.428154,30.3256149l-3.1693726,1.8419037l2.8957443-15.739027       l0.2032738-0.1172676C37.0660973,17.0742512,37.7978516,17.8904457,38.5561943,18.759798z"/></g></g><g><path class="st15" d="M49.7847786,32.9659271c0.1475677-0.0852013,0.2627068-0.029026,0.2631874,0.1405716l0.0046463,1.639267      c0.0004272,0.150753-0.1140175,0.3395081-0.2615852,0.4247055l-2.0497322,1.1834145      c-0.1311951,0.0757446-0.2381325,0.0148048-0.2385597-0.1359482l-0.0046463-1.639267      c-0.0004807-0.1695976,0.1057625-0.3535881,0.2369576-0.4293327L49.7847786,32.9659271z"/><path class="st13" d="M48.7730637,33.8691444c0.3796539-0.2191925,0.6943398-0.0398636,0.6955757,0.3963852      c0.0011826,0.4172783-0.3114586,0.9587326-0.6911125,1.1779251c-0.3795967,0.2191582-0.6942825,0.0398941-0.6954651-0.3773842      C48.0808258,34.6298218,48.3934669,34.0883064,48.7730637,33.8691444z"/></g><path class="st18" d="M46.921505,35.1949043c-0.0184937,0.106144-0.3698845,2.1228294-1.6754379,3.0580101l-5.1116486,2.95121     c-1.3065796,0.572937-1.6611061-1.03619-1.6797638-1.1208801L46.921505,35.1949043z"/><g><path class="st7" d="M42.683403,38.1834373c0.2364922-0.1365356,0.4276276-0.0200768,0.4283752,0.2441216      c0.0007706,0.2717476-0.1891022,0.6006203-0.4255943,0.7371597c-0.2299194,0.1327438-0.421032,0.0238342-0.4218025-0.2479134      C42.2636299,38.652607,42.4534836,38.316185,42.683403,38.1834373z"/></g><path class="st15" d="M37.5079117,40.1545525c0.1475677-0.0852013,0.2627068-0.029026,0.2631874,0.1405754l0.0046501,1.6392632     c0.0004272,0.150753-0.1140175,0.3395081-0.2615891,0.4247055l-2.0497284,1.1834145     c-0.1311951,0.0757446-0.2381325,0.0148048-0.2385597-0.1359482l-0.0046463-1.6392632     c-0.0004807-0.1696014,0.1057625-0.3535881,0.2369537-0.4293327L37.5079117,40.1545525z"/><path class="st13" d="M36.4962006,41.0577698c0.3796501-0.2191925,0.6943359-0.0398636,0.6955719,0.396389     c0.0011864,0.4172745-0.3114586,0.9587288-0.6911087,1.1779213c-0.3795967,0.2191582-0.6942825,0.0398941-0.6954651-0.3773842     C35.8039627,41.8184471,36.1166039,41.2769318,36.4962006,41.0577698z"/></g><path class="st16" d="M27.2160034,26.0341949c-0.3573952,0.1165714-0.6759968,0.3186016-0.932375,0.5827599    c-0.2642059,0.2719822-0.4662361,0.5905361-0.5827599,0.9401989c-0.0466175,0.1165237-0.194252,0.1165237-0.2408714,0    c-0.2331409-0.7226143-0.7925663-1.2898636-1.5151806-1.5229588c-0.1165695-0.0310631-0.1165695-0.1864738,0-0.2253151    c0.3573952-0.1243477,0.6759968-0.3186016,0.9479313-0.5827579c0.2486496-0.2564278,0.4506798-0.5827579,0.5672493-0.9324226    c0.0466194-0.1320782,0.1942539-0.1320782,0.2408714,0c0.1165237,0.3496647,0.3185539,0.6759949,0.5827599,0.9324226    c0.2563782,0.2641563,0.5749798,0.4584103,0.932375,0.5827579C27.3325729,25.8477211,27.3325729,26.0031319,27.2160034,26.0341949    z"/></g></g></svg>