<?xml version="1.0" ?><svg id="Layer_1" style="enable-background:new 0 0 53 53;" version="1.1" viewBox="0 0 53 53" xml:space="preserve" xmlns="http://www.w3.org/2000/svg" xmlns:xlink="http://www.w3.org/1999/xlink"><style type="text/css">
	.st0{enable-background:new    ;}
	.st1{fill:#2C9A2C;}
	.st2{fill:#5B5E71;}
	.st3{fill:#6DCB60;}
	.st4{fill:#3DB542;}
	.st5{fill:#21201F;}
	.st6{fill:#2D2C2B;}
	.st7{fill:#434240;}
	.st8{fill:#81D672;}
	.st9{fill:#ECF0F1;}
	.st10{fill:#E9E8E6;}
	.st11{fill:#383736;}
	.st12{fill:#FF9C00;}
	.st13{fill:#FFD651;}
	.st14{opacity:0.2;}
	.st15{fill:#F25A5A;}
	.st16{fill:#FFFFFF;}
	.st17{fill:#D6D4D2;}
	.st18{fill:#C4C2C0;}
	.st19{fill:#B2B0AF;}
	.st20{fill:#EFC348;}
	.st21{fill:#3F9AE0;}
	.st22{fill:#343331;}
	.st23{opacity:0.3;}
	.st24{fill:#0074D1;}
	.st25{fill:#DDB040;}
	.st26{fill:#F2F2F2;}
	.st27{fill:#A0A8AA;}
	.st28{fill:#8D9799;}
	.st29{fill:#CEA03A;}
	.st30{opacity:0.25;fill:#FFFFFF;}
	.st31{fill:#909293;}
	.st32{fill:#006CB5;}
	.st33{fill:#DD4A4A;}
	.st34{fill:#CC4848;}
	.st35{fill:#C9C8C6;}
	.st36{fill:#B5E5F4;}
	.st37{fill:#005E87;}
	.st38{opacity:0.4;}
	.st39{fill:#41403E;}
	.st40{fill:none;}
	.st41{fill:#464957;}
	.st42{fill:#BB4545;}
	.st43{fill:#A2A4A5;}
	.st44{fill:#CFD2D3;}
	.st45{fill:#FFE2A9;}
	.st46{fill:#B6B9BA;}
	.st47{fill:#C44141;}
	.st48{fill:#82C6E0;}
	.st49{fill:#FC7E7E;}
	.st50{fill:#D4D6D6;}
	.st51{opacity:0.25;}
	.st52{fill:#1E1E1D;}
	.st53{fill:#B4B3B1;}
	.st54{fill:#D4DAE8;}
	.st55{fill:#416E84;}
	.st56{fill:#474B59;}
	.st57{fill:#7E8A8C;}
	.st58{fill:#6D797A;}
	.st59{fill:#88722B;}
	.st60{fill:#7D7C7B;}
	.st61{fill:#C5A00C;}
	.st62{opacity:0.3;fill:#748BFD;}
	.st63{fill:#414143;}
	.st64{opacity:0.6;}
	.st65{fill:#EFAC41;}
	.st66{fill:#FED57A;}
	.st67{opacity:0.5;}
	.st68{fill:#32586B;}
	.st69{opacity:0.7;fill:#B5E5F4;}
	.st70{fill:#494846;}
	.st71{fill:#B8B6B5;}
	.st72{opacity:0.15;fill:#E9E8E6;}
	.st73{fill:#E63044;}
	.st74{fill:#6EBA6E;}
	.st75{fill:#FA5168;}
	.st76{fill:#BAC1CE;}
	.st77{opacity:0.15;}
	.st78{fill:#0E90D8;}
	.st79{fill:#6C6F76;}
	.st80{fill:#787979;}
	.st81{fill:#5B6868;}
	.st82{fill:#4562EF;}
	.st83{fill:#576CFB;}
	.st84{fill:#748BFD;}
	.st85{fill:#F1C40F;}
	.st86{fill:#00649B;}
	.st87{fill:#898887;}
	.st88{fill:#813030;}
	.st89{opacity:0.5;fill:#82C6E0;}
	.st90{opacity:0.1;}
	.st91{opacity:0.15;fill:#FFFFFF;}
	.st92{clip-path:url(#SVGID_2_);enable-background:new    ;}
	.st93{opacity:0.2;fill:#FFFFFF;}
	.st94{fill:#F9BB4A;}
	.st95{fill:#4C7891;}
	.st96{opacity:0.3;fill:#FFFFFF;}
	.st97{fill:#D14E4E;}
	.st98{fill:#518696;}
	.st99{fill:#C3A12E;}
	.st100{fill:#3F434F;}
	.st101{fill:#363A44;}
	.st102{fill:#75CA75;}
	.st103{fill:#E4E8F4;}
	.st104{fill:#506A47;}
	.st105{fill:#3A3937;}
	.st106{fill:#C5A53E;}
	.st107{fill:#D4D2D0;}
	.st108{fill:#B8B7B5;}
	.st109{fill:#A5A4A2;}
	.st110{fill:#0059A1;}
	.st111{fill:#0070CA;}
	.st112{fill:#0064B4;}
	.st113{fill:#989694;}
	.st114{fill:#F34858;}
	.st115{opacity:0.1;fill:#FFFFFF;}
	.st116{fill:#8A9193;}
	.st117{fill:#B4B3B2;}
	.st118{fill:#3B3A38;}
	.st119{fill:#242322;}
</style><g><g><g><g><path class="st101" d="M13.2973852,31.7843094l3.0885286-4.4743137l-1.589036-4.011776      c-0.7700014-0.4376945-1.4589081-0.4782047-1.9534054-0.1945553l-3.4283867,1.9939175      c0.4943514-0.2917976,1.1914768-0.2431393,1.9533319,0.1944809c1.5156384,0.8753891,2.73948,2.9907665,2.7314072,4.7333965      C14.0998249,30.8927746,13.79181,31.5006599,13.2973852,31.7843094z"/><path class="st6" d="M33.6121864,43.5135498l5.1332512-3.2925186l-3.6337585-5.193573      c-0.7700005-0.4376907-1.4589081-0.4782028-1.9534035-0.1945534l-3.4283886,1.9939156      c0.4943523-0.2917938,1.1914768-0.2431374,1.9533329,0.1944847c1.5156403,0.8753853,2.7394791,2.9907646,2.7314072,4.7333946      C34.4146271,42.6220131,34.1066132,43.2299004,33.6121864,43.5135498z"/><path class="st6" d="M13.2845535,31.7843094l5.1332493-3.2925186l-3.6337576-5.1935711      c-0.7700014-0.4376945-1.4589081-0.4782047-1.9534054-0.1945553l-3.4283867,1.9939175      c0.4943514-0.2917976,1.1914768-0.2431393,1.9533329,0.1944809c1.5156374,0.8753891,2.73948,2.9907665,2.7314062,4.7333965      C14.0869923,30.8927746,13.7789774,31.5006599,13.2845535,31.7843094z"/><path class="st2" d="M3.1081207,24.2968521l0.0000091-0.0031757c0.0192361,0.0130844,0.038645,0.0254917,0.0582275,0.0367985      L3.1081207,24.2968521z"/><path class="st101" d="M3.1707211,22.7911911l-0.004364,1.5392876      c-0.0195861-0.0113068-0.0389929-0.0237179-0.0582342-0.0368042c-0.1599016-0.1087246-0.3065245-0.2762547-0.4146678-0.4635715      c-0.1186278-0.2054653-0.1940453-0.444294-0.1934514-0.6537838c0.0011404-0.4022675,0.2700529-0.5791531,0.6124654-0.4156761      C3.1316912,22.7698231,3.1510661,22.7798424,3.1707211,22.7911911z"/><polygon class="st84" points="3.1707211,22.7911911 19.1413536,16.1603718 17.0922699,16.5178661 3.166357,24.3304787     "/><path class="st2" d="M3.1081297,24.2936764l13.9259071-7.8126087c0.0192413,0.0130806,0.0386505,0.0254879,0.0582333,0.0367928      L3.1663532,24.3304787C3.1467748,24.3191681,3.1273658,24.3067608,3.1081297,24.2936764z"/><path class="st56" d="M2.6959896,22.7452297l15.9706268-6.6308155c0.1085701-0.0630951,0.254282-0.0620327,0.4164848,0.0154076      c0.0192223,0.009182,0.0385971,0.0192013,0.0582523,0.03055L3.1707168,22.7911949      c-0.0196507-0.0113525-0.0390255-0.0213718-0.0582478-0.0305519      C2.9502654,22.6832027,2.8045554,22.6821384,2.6959896,22.7452297z"/><polygon class="st8" points="29.2120609,16.3897686 25.85042,18.3320141 15.5092497,24.351038 6.476428,19.1190796       3.1254046,17.1873856 16.8175983,9.2261152     "/><g><g><polygon class="st4" points="4.8182707,17.1842041 6.901226,18.3851128 8.2704687,19.1779194 16.8186588,14.2074013         16.8186588,10.2065125       "/><polygon class="st3" points="16.8186588,10.2065125 16.8186588,14.2074013 24.0598602,18.3926334 25.4259968,17.5975494         27.5172348,16.3900146       "/></g><polygon class="st1" points="24.0598602,18.3926334 16.8186588,14.2074013 8.2704687,19.1779194 15.5081501,23.3701916             "/></g><path class="st2" d="M16.6365108,24.8919277l13.6974049-7.960062c-0.0231819,0.1265011,0.0701504,0.3086452,0.194231,0.3802834      l-13.6974049,7.960062C16.7066612,25.200573,16.6133289,25.0184288,16.6365108,24.8919277z"/><polygon class="st2" points="17.0895309,22.5624065 30.7869358,14.6023445 30.3339157,16.9318657 16.6365108,24.8919277     "/><path class="st2" d="M30.840456,14.5162792c-0.0266914,0.0155115-0.0458393,0.0445709-0.0535202,0.0860653      l-13.6974087,7.9600639c0.0076847-0.0414963,0.0268307-0.0705566,0.053524-0.0860672      C21.2522678,20.0883236,26.7312336,16.9043045,30.840456,14.5162792z"/><path class="st102" d="M17.1430473,22.4763432l13.697401-7.9600582c0.035984-0.0209122,0.0856705-0.0172024,0.1394615,0.013854      L17.282505,22.4902C17.228714,22.4591446,17.1790257,22.4554348,17.1430473,22.4763432z"/><polygon class="st2" points="16.8307419,25.2722111 30.5281467,17.312149 34.1088295,19.3794575 20.4114246,27.3395195     "/><path class="st8" d="M16.4823322,21.2588062l13.697401-7.9600563c0.1226711-0.0712919,0.2919369-0.0588179,0.4737988,0.0461807      l-13.6974049,7.960062C16.7742653,21.199995,16.6049976,21.187521,16.4823322,21.2588062z"/><path class="st2" d="M34.2476501,19.3933105l-13.6974068,7.960062c-0.0351982,0.0204544-0.0840893,0.017746-0.1388187-0.0138531      l13.6974049-7.960062C34.163559,19.4110565,34.2124519,19.413765,34.2476501,19.3933105z"/><path class="st102" d="M34.2476463,19.3933105l-13.6974087,7.9600677      c0.0446072-0.0259266,0.0672283-0.0890503,0.0518837-0.1777287l13.6974049-7.9600639      C34.3148689,19.304266,34.2922516,19.3673897,34.2476463,19.3933105z"/><polygon class="st102" points="17.282505,22.4902 30.9799099,14.530139 34.0133438,16.3776932 20.3159389,24.3377552     "/><polygon class="st102" points="20.5078907,24.6263523 34.2052956,16.6662903 34.2995262,19.2155857 20.6021214,27.1756496           "/><path class="st83" d="M17.282505,22.4902l3.0334339,1.8475552c0.0936947,0.0540943,0.1719913,0.1721554,0.1919518,0.2885971      l0.0942307,2.5492973c0.0274506,0.1586552-0.0666161,0.2355118-0.1906986,0.1638718l-3.5806847-2.0673084      c-0.1240826-0.07164-0.2174149-0.2537861-0.1942291-0.3802814l0.4530201-2.3295212      C17.107563,22.4649792,17.1888084,22.4361057,17.282505,22.4902z"/><path class="st102" d="M20.3159389,24.3377552l13.6974049-7.960062      c0.0936966,0.0540943,0.1719894,0.1721554,0.1919518,0.2885971l-13.6974049,7.960062      C20.4879303,24.5099106,20.4096336,24.3918495,20.3159389,24.3377552z"/><polygon class="st8" points="16.9561272,21.3049927 30.653532,13.3449306 38.6227074,17.9459362 24.9253006,25.9059982     "/><path class="st3" d="M24.9253006,25.9059982l13.6974068-7.960062c0.3874435,0.22369,0.7695732,0.5317383,1.1210365,0.9211884      c1.2237778,1.3652439,2.4252548,3.4375172,3.6109924,5.6930637L29.6573315,32.520256      c-1.1857395-2.2555523-2.3872147-4.3278255-3.6109924-5.6930695      C25.6948738,26.4377365,25.3127441,26.1296883,24.9253006,25.9059982z"/><path class="st8" d="M39.4863319,19.0306873c-0.2448006-0.2651539-0.5098953-0.4894772-0.7750473-0.683239l-0.0713921,0.0407696      c0.2345314,0.1733456,0.4589157,0.3671074,0.6730309,0.6016998c1.2237549,1.3562698,2.4373016,3.487587,3.3959007,5.3028355      l0.1733475,0.0407677C41.9235725,22.5182743,40.710022,20.3870201,39.4863319,19.0306873z"/><path class="st8" d="M42.7088242,24.2927532v0.000061l-13.0532379,7.5667896      c0.0204144,0.0407696,0.0407677,0.0713921,0.0611839,0.1121616l13.1654015-7.6381817v-0.0000629L42.7088242,24.2927532z"/><path class="st24" d="M42.7118492,24.2890606l-5.6700058,3.283741l-1.4073067,0.8158169l-2.2027702,1.2747307      l-3.7731571,2.192564c-0.142786-0.2651539-0.2957783-0.5405159-0.4487095-0.8260231      c-0.8974152-1.6010704-1.9478245-3.3245106-3.0185852-4.5278492c-0.1733475-0.1937618-0.3671093-0.3875237-0.5608711-0.550724      l4.8235645-2.8044109l4.4156895-2.5698166l2.1925011-1.2747307l1.4175148-0.8260231l0.1632004-0.0918083      c0.2345314,0.1733456,0.4588547,0.3671074,0.6730309,0.6016998      C40.5396996,20.3424969,41.7532463,22.473875,42.7118492,24.2890606z"/><polygon class="st2" points="35.5367508,41.4932442 49.2341576,33.5331802 49.2297935,35.0724716 35.5323868,43.0325317     "/><path class="st8" d="M50.5,30.2483253l-13.6957092,7.9543152c-0.5200996-1.6826096-3.3652802-3.569252-5.3028965-4.6909904      c-1.0605545-0.6118431-1.8050404-0.9688072-1.845808-0.9892235l13.6957092-7.9645195      c0.0407677,0.0204144,0.7954636,0.3875237,1.8458099,0.9892235C47.1347198,26.668869,49.9901085,28.5657177,50.5,30.2483253z"/><polygon class="st84" points="35.5367432,41.4961472 49.2341461,33.536087 50.487648,34.2568893 36.7902412,42.2169533     "/><path class="st3" d="M36.8093147,38.2033386l-0.0106812,5.5705452l-1.2592888-0.7256889l-0.0106812-0.0104752      l-0.2987823-0.170723l-0.1920891-0.1173744l-1.00317-0.5763321l-4.3755589-2.5292587l-0.1493587-0.0960121L29.44561,39.5159721      l-1.2592869-0.7256851l-7.1075249-4.0873947L3.1668661,24.3269558v-1.5367699l-0.0319819-5.5921822      c4.2229109,2.3506203,7.1129818,4.0427895,12.3837795,7.1637173l0.8003998-2.8813877      c0.096077-0.277483,0.3521938-0.3308945,0.6403599-0.1707878l4.1193752,2.3798351l3.8525772,2.2197933      c0.3841763,0.2241364,0.7684174,0.5335999,1.1205463,0.9284592c1.2166233,1.3553638,2.4225655,3.4364166,3.6071415,5.6881924      c0.0427303,0.0213661,0.7897186,0.373497,1.8463001,0.9924889      C33.4369926,34.6388626,36.2863998,36.5278282,36.8093147,38.2033386z"/><polygon class="st4" points="36.8016129,38.2072105 50.4990196,30.2471466 50.4876518,35.8041306 36.7902451,43.7641945     "/><path class="st4" d="M29.6586094,32.5257034v7.1181412l-0.1529942-0.0918045L21.08218,34.6978493V23.6841812      l3.8446102,2.2231255c0.3875237,0.2243843,0.7750473,0.5303078,1.1217384,0.9280396      C27.2722836,28.1916142,28.4756222,30.2720165,29.6586094,32.5257034z"/><path class="st83" d="M24.4590683,26.6335926c0.0633068,0.0365505,0.1214828,0.093462,0.1720142,0.1634521l2.7737427,3.9797153      c0.2248306,0.3221664,0.1071892,0.6622906-0.1738968,0.5000057l-5.0620842-2.922596      c-0.1367435-0.078949-0.2554493-0.2582512-0.2828674-0.4285507l0.0143204-2.3671207      c-0.0373974-0.2285194,0.0998993-0.3445358,0.2847576-0.2378082L24.4590683,26.6335926z"/><path class="st21" d="M34.8696976,20.5770893l-1.4379311,9.0862598l-3.7731571,2.192564      c-0.142786-0.2651539-0.2957783-0.5405159-0.4487095-0.8260231l1.2441082-7.8829842L34.8696976,20.5770893z"/><polygon class="st21" points="38.4797134,18.4763355 37.0418434,27.5728016 35.6345367,28.3886185 37.0621986,19.3023586           "/><polygon class="st66" points="31.4004269,34.8707504 31.4004269,35.5651474 30.0359249,34.7819481 30.0440063,34.0875969           "/><path class="st1" d="M35.1658516,41.7571335c0,0.3734932-0.0427284,0.7043228-0.1280594,0.9924889l-1.00317-0.5763321      l-4.3755589-2.5292587l-0.1493587-0.0960121L29.44561,39.5159721l-1.2592869-0.7256851v-0.2027702      c0-1.8569183,1.1419106-2.6893654,2.2624588-2.6893654c0.5122986,0,1.0565815,0.1601067,1.6007977,0.4802513      C33.7998047,37.3815727,35.1658516,39.7507935,35.1658516,41.7571335z"/><ellipse class="st7" cx="31.6715279" cy="40.1724091" rx="2.2393799" ry="3.8661461" transform="matrix(0.8646048 -0.5024526 0.5024526 0.8646048 -15.8965559 21.3525925)"/><g><path class="st10" d="M31.6779861,37.9000778c-1.0932846-0.6312294-1.9804382-0.1256752-1.9840355,1.1305695       c-0.0035172,1.2562408,0.8779144,2.7829666,1.971117,3.4141121c1.0932865,0.6312294,1.9804401,0.1255913,1.9840374-1.1305695       C33.6526184,40.0579453,32.7711906,38.5312233,31.6779861,37.9000778z M30.8688374,40.7478828       c-0.0463619,0.0042534-0.0964031-0.0098953-0.1457062-0.0382652c-0.0983639-0.0568275-0.1932125-0.1707268-0.246851-0.308094       c-0.0766144-0.1993446-0.0297623-0.3762016,0.1091576-0.3847046c0.0449715-0.0050697,0.0946846,0.008831,0.1437435,0.0372009       c0.0981178,0.0566635,0.1938648,0.1710548,0.2448864,0.3068657       C31.0545254,40.5625191,31.0077553,40.7393799,30.8688374,40.7478828z M30.9766846,39.4359589       c-0.052248,0.0774307-0.1498756,0.0802917-0.2491379,0.022892c-0.0479965-0.0276375-0.0964031-0.0694199-0.1402283-0.1236305       c-0.1383476-0.1729317-0.1840534-0.3987694-0.1065407-0.513649c0.0542107-0.0751419,0.1493855-0.0792313,0.2478313-0.0224037       c0.0492229,0.0283737,0.0992622,0.0720367,0.1453781,0.1296806       C31.0124168,39.0974503,31.0580406,39.3277016,30.9766846,39.4359589z M31.6680107,41.8831139       c-0.1578884-0.0911674-0.2883854-0.3172493-0.2878952-0.4986877s0.1318874-0.2519188,0.2897758-0.1607513       c0.1579704,0.0911674,0.284626,0.310627,0.2841358,0.4920654       C31.953455,41.8971748,31.8259811,41.9742813,31.6680107,41.8831139z M31.6751251,39.3781509       c-0.1578884-0.0911713-0.2884693-0.3128357-0.2878971-0.4942741c0.0004921-0.1814384,0.1318893-0.2563324,0.2897778-0.1651649       s0.2846241,0.3150406,0.2840519,0.496479C31.9605675,39.3966293,31.8330956,39.4693184,31.6751251,39.3781509z        M32.8603973,41.7780457c-0.0515976,0.0765305-0.1476707,0.0802116-0.246933,0.022892       c-0.049633-0.028698-0.1000824-0.072525-0.1461983-0.1302528c-0.1345825-0.1663094-0.1802101-0.3965607-0.1027756-0.5070267       c0.0542068-0.075058,0.1493835-0.0792274,0.2478294-0.0224037c0.049221,0.0284538,0.0992622,0.0720367,0.1453781,0.1297646       C32.8922844,41.4373283,32.9417534,41.6698685,32.8603973,41.7780457z M32.7596588,40.5894203       c-0.0452957,0.0027809-0.0941925-0.0116081-0.1422691-0.0394096c-0.0996742-0.0575638-0.1960754-0.1724434-0.2502861-0.3112793       c-0.0765305-0.1994286-0.0297623-0.3762856,0.1053162-0.3869972c0.0462799-0.0043335,0.0968094,0.0100555,0.1464424,0.0387573       c0.0992622,0.0573158,0.1950073,0.1717072,0.2460289,0.307518       C32.9453506,40.4040604,32.8947372,40.574295,32.7596588,40.5894203z"/><path class="st17" d="M31.9883919,40.4413109c0,0.2035332-0.1442108,0.2798347-0.3138409,0.1780663       c-0.1695766-0.093277-0.3137875-0.3391533-0.3137875-0.5343018c0-0.2035332,0.1442108-0.2798309,0.3137875-0.186554       C31.8611584,40.0002899,31.99683,40.2462692,31.9883919,40.4413109z"/></g><path class="st8" d="M22.3709774,28.2569084c-0.1427212-0.071394-0.2549458-0.2549477-0.2855072-0.4282932l0.0203533-2.3659096      c-0.0117645-0.0648575-0.0058498-0.1175137,0.0084038-0.1621418c-0.1460228-0.0458736-0.2444897,0.0618687-0.209074,0.2567501      L21.8848,27.9232235c0.0305614,0.1733475,0.1427841,0.3569012,0.2855072,0.4282932l5.058157,2.9267788      c0.1461468,0.0835304,0.2446156,0.031805,0.2780399-0.0793591c-0.0265789-0.0064106-0.0464954,0.0023651-0.0773678-0.0152493      L22.3709774,28.2569084z"/><path class="st8" d="M16.8335514,24.7998199l0.4541225-2.3107624l-0.0021152-0.0013065      c-0.0918083-0.0509777-0.1733475-0.0204163-0.1937618,0.0713921l-0.4589157,2.3352871      c-0.0203533,0.1223679,0.0713921,0.3059216,0.1937618,0.3773155l3.5896626,2.0701942      c0.1030121,0.0601254,0.1677456-0.0026779,0.1726627-0.1107311l-3.561655-2.0540733      C16.9049435,25.1057434,16.8131981,24.9221897,16.8335514,24.7998199z"/><path class="st24" d="M20.5131512,24.628521l0.0853958,2.5506229c0.0106812,0.0213661-0.0106831,0.0320473-0.0106831,0.0533485      l-3.5644112-2.0596886c-0.1174412-0.0640297-0.2134533-0.2454357-0.1920891-0.3734951l0.458889-2.3051872l3.0201283,1.8356171      C20.4064579,24.3937683,20.4918518,24.5111446,20.5131512,24.628521z"/><path class="st24" d="M27.5033646,31.2025089c-0.0213661-0.0106812-0.0427303,0-0.0747128-0.0213642l-5.0585175-2.924118      c-0.1387405-0.0747108-0.2561817-0.2561169-0.2881641-0.4269066l0.0213642-2.3691521      c-0.0106831-0.0640297,0-0.1173763,0.0106182-0.1601067c0.0213642,0.0106831,0.0427284,0.0106831,0.0640278,0.0213661      l2.2731419,1.3126354c0.0747128,0.0320473,0.1280594,0.0960751,0.1814709,0.1707878l2.7640114,3.9699535      C27.5139809,30.935709,27.535347,31.0957508,27.5033646,31.2025089z"/><g><path class="st15" d="M39.7887917,38.2966156c0.1132011,0.5757332,0.1267014,1.1887856,0.0052528,1.8527565       l-2.1811218,1.2592735c-0.1014481-0.5622749-0.1031876-1.1753693-0.0052528-1.8527603L39.7887917,38.2966156z        M38.708683,40.546566c0.3342018-0.192955,0.6030121-0.6653252,0.601963-1.0358772       c-0.0011063-0.3907623-0.2717133-0.5517006-0.6059189-0.3587456c-0.3400345,0.1963196-0.6029816,0.6653023-0.6018753,1.0560684       C38.1039047,40.5785637,38.3686447,40.7428856,38.708683,40.546566"/><path class="st66" d="M49.1876259,33.8176804c0,0.3732147-0.2713928,0.8480911-0.6021614,1.0346451       c-0.3392029,0.1951485-0.6105995,0.0339584-0.6105995-0.3391533c0-0.3900871,0.2629051-0.8565788,0.6021118-1.0516243       C48.9162331,33.2665062,49.1876259,33.4275932,49.1876259,33.8176804z"/><path class="st66" d="M39.3073616,39.5083313c0.0084877,0.3732109-0.2629051,0.8480873-0.6021118,1.0347481       c-0.3392563,0.2035332-0.6021614,0.0338516-0.6021614-0.3392563c0-0.3900909,0.2629051-0.8565788,0.6021614-1.0516243       C39.0360184,38.9571533,39.3073616,39.1182404,39.3073616,39.5083313z"/><path class="st15" d="M49.6629829,32.6026955c0.1132317,0.5757179,0.1267166,1.1887779,0.0052528,1.8527603       l-2.1811066,1.2592621c-0.1014328-0.5622864-0.1031723-1.1753807-0.0052528-1.8527603L49.6629829,32.6026955z        M48.5829048,34.8526268c0.3342018-0.1929512,0.6030121-0.6653214,0.601963-1.0358734       c-0.0011063-0.3907623-0.2717133-0.5517006-0.6059189-0.3587494c-0.3400688,0.1963387-0.6030159,0.6653252-0.6019058,1.0560875       C47.9780922,34.8846436,48.242836,35.0489655,48.5829048,34.8526268"/><path class="st10" d="M46.795681,34.2674179l-0.3202553,1.6814995c-0.0458031,0.2631416-0.2287941,0.5147667-0.4346886,0.6292       l-5.2449913,3.0255127c-0.2058945,0.1258125-0.3888893,0.0686302-0.4346886-0.1373329l-0.3202553-1.3154449       L46.795681,34.2674179z"/><polygon class="st17" points="45.6324463,35.7804871 45.6329994,35.9758606 41.20121,38.5258675 41.2006569,38.3304977             "/><polygon class="st17" points="45.9652367,35.0889626 45.9657707,35.2776184 40.8655739,38.2135353 40.8650398,38.0248795             "/><polygon class="st17" points="45.3289795,36.4550591 45.3295326,36.6504555 41.5075035,38.8484192 41.5069504,38.6530228             "/></g><path class="st4" d="M14.8510504,30.0278931c0,0.3734932-0.0427303,0.7043228-0.1280594,0.9924889l-1.00317-0.5763302      L9.3442612,27.914793l-0.1493578-0.0960121l-0.0640945-0.0320473l-1.2592883-0.725687v-0.2027721      c0-1.8569164,1.141912-2.6893635,2.2624583-2.6893635c0.5123005,0,1.0565834,0.1601048,1.6008005,0.4802513      C13.4850025,25.6523342,14.8510504,28.0215511,14.8510504,30.0278931z"/><ellipse class="st7" cx="11.3567247" cy="28.4431686" rx="2.2393799" ry="3.8661461" transform="matrix(0.8646048 -0.5024526 0.5024526 0.8646048 -12.7536964 9.5572853)"/><g><path class="st103" d="M11.3631849,26.1708355c-1.0932856-0.6312275-1.9804392-0.1256733-1.9840374,1.1305714       c-0.0035162,1.2562428,0.8779154,2.7829647,1.971118,3.4141121c1.0932846,0.6312294,1.9804392,0.1255913,1.9840364-1.1305695       C13.3378181,28.3287067,12.4563875,26.8019829,11.3631849,26.1708355z M10.5540342,29.0186424       c-0.046361,0.0042515-0.0964012-0.0098934-0.1457062-0.0382652c-0.0983629-0.0568275-0.1932116-0.1707268-0.2468491-0.3080921       c-0.0766144-0.1993446-0.0297632-0.3762035,0.1091566-0.3847065c0.0449705-0.0050697,0.0946846,0.008831,0.1437435,0.0372028       c0.0981188,0.0566635,0.1938658,0.1710529,0.2448874,0.3068657       C10.7397232,28.8332806,10.6929541,29.0101395,10.5540342,29.0186424z M10.6618824,27.7067165       c-0.052248,0.0774326-0.1498756,0.0802937-0.2491388,0.0228939c-0.0479965-0.0276356-0.0964012-0.069418-0.1402273-0.1236286       c-0.1383467-0.1729336-0.1840544-0.3987694-0.1065407-0.513649c0.0542107-0.0751438,0.1493855-0.0792313,0.2478313-0.0224037       c0.0492229,0.0283718,0.0992632,0.0720348,0.1453791,0.1296787       C10.6976147,27.3682079,10.7432394,27.5984592,10.6618824,27.7067165z M11.3532095,30.1538734       c-0.1578894-0.0911694-0.2883873-0.3172493-0.2878962-0.4986877c0.0004902-0.1814365,0.1318874-0.2519188,0.2897768-0.1607513       c0.1579704,0.0911694,0.2846251,0.310627,0.2841339,0.4920654       C11.6386518,30.1679363,11.5111799,30.2450409,11.3532095,30.1538734z M11.360323,27.6489086       c-0.1578894-0.0911674-0.2884684-0.3128338-0.2878962-0.4942722c0.0004902-0.1814365,0.1318874-0.2563343,0.2897768-0.1651649       c0.1578884,0.0911674,0.2846251,0.3150425,0.2840528,0.496479C11.6457653,27.667387,11.5182934,27.740078,11.360323,27.6489086       z M12.5455933,30.0488052c-0.0515938,0.0765324-0.1476679,0.0802116-0.2469311,0.0228939       c-0.0496321-0.0286999-0.1000805-0.0725269-0.1461964-0.1302528c-0.1345863-0.1663113-0.1802111-0.3965626-0.1027794-0.5070267       c0.0542107-0.0750599,0.1493855-0.0792313,0.2478313-0.0224037c0.049222,0.0284538,0.0992632,0.0720348,0.1453781,0.1297607       C12.5774822,29.7080879,12.6269503,29.9406281,12.5455933,30.0488052z M12.4448586,28.8601818       c-0.0452976,0.002779-0.0941935-0.0116119-0.142272-0.0394115c-0.0996714-0.0575619-0.1960735-0.1724434-0.2502832-0.3112812       c-0.0765324-0.1994247-0.0297632-0.3762836,0.1053133-0.3869953c0.046279-0.0043335,0.0968103,0.0100574,0.1464424,0.0387573       c0.0992632,0.0573177,0.1950102,0.1717072,0.2460318,0.3075199       C12.6305475,28.6748199,12.5799351,28.8450546,12.4448586,28.8601818z"/><path class="st17" d="M11.6717482,28.7099819c0,0.2051182-0.1403475,0.280695-0.3130465,0.183506       c-0.1727657-0.0971222-0.3131123-0.3454647-0.3131123-0.5397758c0-0.2051182,0.1403465-0.280695,0.3131123-0.183506       C11.5422068,28.267395,11.6825542,28.5156708,11.6717482,28.7099819z"/></g><path class="st7" d="M17.4139709,26.6569958c0.0892277,0.0515156,0.1580715,0.174078,0.1577816,0.2766075      c-0.0002823,0.0992203-0.0695953,0.1420174-0.158823,0.0905018l-0.8692226-0.5018463      c-0.0863495-0.0498543-0.1580734-0.174078-0.1577911-0.2732983c0.0002899-0.1025295,0.0724831-0.1436653,0.1588306-0.093811      L17.4139709,26.6569958z"/><path class="st7" d="M23.1610966,30.0561314c0.0892239,0.0515137,0.1609459,0.1757374,0.160656,0.2782669      c-0.0002899,0.1025238-0.0724735,0.1403561-0.1616955,0.0888424l-0.8951321-0.5168037      c-0.0863476-0.0498524-0.1580811-0.1707745-0.1577911-0.2732983c0.0002918-0.1025295,0.0724831-0.1436653,0.1588326-0.093811      L23.1610966,30.0561314z"/><g><path class="st15" d="M4.0732379,19.9676571c0.1090288,0.0629482,0.190506,0.2119427,0.1901507,0.337225l-0.0062151,2.1922417       c-0.0003328,0.1174507-0.0823874,0.1720314-0.1914158,0.1090832L3.166357,22.086937l-0.0186028-2.6385479L4.0732379,19.9676571       z"/></g></g></g><path class="st16" d="M29.8058052,26.8901138c-0.6167107,0.2011509-1.0731297,0.7153606-1.2551804,1.2616615    c-0.03862,0.0965309-0.1609249,0.0965309-0.1995449,0c-0.19314-0.5986347-0.6565838-1.0685616-1.2552185-1.2616615    c-0.0965691-0.0257339-0.0965691-0.1544819,0-0.1866589c0.5953426-0.2071381,1.0502205-0.6403065,1.2552185-1.2552185    c0.03862-0.109417,0.1609249-0.109417,0.1995449,0c0.1816502,0.5450974,0.6188946,1.0338364,1.2551804,1.2552185    C29.9023743,26.7356319,29.9023743,26.8643799,29.8058052,26.8901138z"/></g></g></svg>