<?xml version="1.0" ?><svg viewBox="0 0 64 64" xmlns="http://www.w3.org/2000/svg"><g id="flat"><rect height="10" style="fill:#d3843d" transform="translate(16 46) rotate(-180)" width="10" x="3" y="18"/><rect height="10" style="fill:#ad6327" width="2" x="6" y="18"/><rect height="2" style="fill:#7fcac9" width="18" x="2" y="27"/><rect height="5.57" style="fill:#394d5c" transform="translate(50 53.57) rotate(-180)" width="14" x="18" y="24"/><rect height="2" style="fill:#7d8d9c" width="22" x="40" y="52"/><rect height="2" style="fill:#7d8d9c" width="2" x="36" y="52"/><rect height="2" style="fill:#7d8d9c" width="32" x="2" y="52"/><circle cx="55" cy="47" r="6" style="fill:#394d5c"/><circle cx="55" cy="47" r="2" style="fill:#eed98f"/><circle cx="25" cy="47" r="6" style="fill:#394d5c"/><circle cx="25" cy="47" r="2" style="fill:#eed98f"/><polygon points="49 46 61 46 55 20 49 20 49 46" style="fill:#e97131"/><rect height="8" style="fill:#c4570c" transform="translate(108 32) rotate(-180)" width="10" x="49" y="12"/><rect height="6" style="fill:#f1d77e" transform="translate(86 86) rotate(-180)" width="12" x="37" y="40"/><path d="M13,28H37a0,0,0,0,1,0,0V40a6,6,0,0,1-6,6H19a6,6,0,0,1-6-6V28A0,0,0,0,1,13,28Z" style="fill:#e97131" transform="translate(50 74) rotate(-180)"/><rect height="8" style="fill:#f1d77e" transform="translate(114 32) rotate(-180)" width="4" x="55" y="12"/><path d="M18,33H32a0,0,0,0,1,0,0V44a2,2,0,0,1-2,2H20a2,2,0,0,1-2-2V33a0,0,0,0,1,0,0Z" style="fill:#c4570c" transform="translate(50 79) rotate(-180)"/><rect height="4" style="fill:#394d5c" transform="translate(90 32) rotate(-180)" width="8" x="41" y="14"/><rect height="2" style="fill:#f1d77e" width="2" x="26" y="36"/><rect height="2" style="fill:#f1d77e" width="2" x="22" y="36"/><rect height="4" style="fill:#fcf05a" transform="translate(22 72) rotate(-180)" width="4" x="9" y="34"/><rect height="2" style="fill:#fcf05a" width="2" x="54" y="36"/><rect height="2" style="fill:#fcf05a" width="3" x="49" y="36"/><path d="M55.959,24.154l1.793,7.77a3.989,3.989,0,0,1-1.793-7.77Z" style="fill:#fcf05a"/><rect height="4" style="fill:#fcf05a" transform="translate(20 88) rotate(-180)" width="6" x="7" y="42"/></g></svg>