<?xml version="1.0" ?><svg id="Layer_1" style="enable-background:new 0 0 53 53;" version="1.1" viewBox="0 0 53 53" xml:space="preserve" xmlns="http://www.w3.org/2000/svg" xmlns:xlink="http://www.w3.org/1999/xlink"><style type="text/css">
	.st0{enable-background:new    ;}
	.st1{fill:#2C9A2C;}
	.st2{fill:#5B5E71;}
	.st3{fill:#6DCB60;}
	.st4{fill:#3DB542;}
	.st5{fill:#21201F;}
	.st6{fill:#2D2C2B;}
	.st7{fill:#434240;}
	.st8{fill:#81D672;}
	.st9{fill:#ECF0F1;}
	.st10{fill:#E9E8E6;}
	.st11{fill:#383736;}
	.st12{fill:#FF9C00;}
	.st13{fill:#FFD651;}
	.st14{opacity:0.2;}
	.st15{fill:#F25A5A;}
	.st16{fill:#FFFFFF;}
	.st17{fill:#D6D4D2;}
	.st18{fill:#C4C2C0;}
	.st19{fill:#B2B0AF;}
	.st20{fill:#EFC348;}
	.st21{fill:#3F9AE0;}
	.st22{fill:#343331;}
	.st23{opacity:0.3;}
	.st24{fill:#0074D1;}
	.st25{fill:#DDB040;}
	.st26{fill:#F2F2F2;}
	.st27{fill:#A0A8AA;}
	.st28{fill:#8D9799;}
	.st29{fill:#CEA03A;}
	.st30{opacity:0.25;fill:#FFFFFF;}
	.st31{fill:#909293;}
	.st32{fill:#006CB5;}
	.st33{fill:#DD4A4A;}
	.st34{fill:#CC4848;}
	.st35{fill:#C9C8C6;}
	.st36{fill:#B5E5F4;}
	.st37{fill:#005E87;}
	.st38{opacity:0.4;}
	.st39{fill:#41403E;}
	.st40{fill:none;}
	.st41{fill:#464957;}
	.st42{fill:#BB4545;}
	.st43{fill:#A2A4A5;}
	.st44{fill:#CFD2D3;}
	.st45{fill:#FFE2A9;}
	.st46{fill:#B6B9BA;}
	.st47{fill:#C44141;}
	.st48{fill:#82C6E0;}
	.st49{fill:#FC7E7E;}
	.st50{fill:#D4D6D6;}
	.st51{opacity:0.25;}
	.st52{fill:#1E1E1D;}
	.st53{fill:#B4B3B1;}
	.st54{fill:#D4DAE8;}
	.st55{fill:#416E84;}
	.st56{fill:#474B59;}
	.st57{fill:#7E8A8C;}
	.st58{fill:#6D797A;}
	.st59{fill:#88722B;}
	.st60{fill:#7D7C7B;}
	.st61{fill:#C5A00C;}
	.st62{opacity:0.3;fill:#748BFD;}
	.st63{fill:#414143;}
	.st64{opacity:0.6;}
	.st65{fill:#EFAC41;}
	.st66{fill:#FED57A;}
	.st67{opacity:0.5;}
	.st68{fill:#32586B;}
	.st69{opacity:0.7;fill:#B5E5F4;}
	.st70{fill:#494846;}
	.st71{fill:#B8B6B5;}
	.st72{opacity:0.15;fill:#E9E8E6;}
	.st73{fill:#E63044;}
	.st74{fill:#6EBA6E;}
	.st75{fill:#FA5168;}
	.st76{fill:#BAC1CE;}
	.st77{opacity:0.15;}
	.st78{fill:#0E90D8;}
	.st79{fill:#6C6F76;}
	.st80{fill:#787979;}
	.st81{fill:#5B6868;}
	.st82{fill:#4562EF;}
	.st83{fill:#576CFB;}
	.st84{fill:#748BFD;}
	.st85{fill:#F1C40F;}
	.st86{fill:#00649B;}
	.st87{fill:#898887;}
	.st88{fill:#813030;}
	.st89{opacity:0.5;fill:#82C6E0;}
	.st90{opacity:0.1;}
	.st91{opacity:0.15;fill:#FFFFFF;}
	.st92{clip-path:url(#SVGID_2_);enable-background:new    ;}
	.st93{opacity:0.2;fill:#FFFFFF;}
	.st94{fill:#F9BB4A;}
	.st95{fill:#4C7891;}
	.st96{opacity:0.3;fill:#FFFFFF;}
	.st97{fill:#D14E4E;}
	.st98{fill:#518696;}
	.st99{fill:#C3A12E;}
	.st100{fill:#3F434F;}
	.st101{fill:#363A44;}
	.st102{fill:#75CA75;}
	.st103{fill:#E4E8F4;}
	.st104{fill:#506A47;}
	.st105{fill:#3A3937;}
	.st106{fill:#C5A53E;}
	.st107{fill:#D4D2D0;}
	.st108{fill:#B8B7B5;}
	.st109{fill:#A5A4A2;}
	.st110{fill:#0059A1;}
	.st111{fill:#0070CA;}
	.st112{fill:#0064B4;}
	.st113{fill:#989694;}
	.st114{fill:#F34858;}
	.st115{opacity:0.1;fill:#FFFFFF;}
	.st116{fill:#8A9193;}
	.st117{fill:#B4B3B2;}
	.st118{fill:#3B3A38;}
	.st119{fill:#242322;}
</style><g><g><path class="st5" d="M16.1590176,33.5285683c0,0.8644981-0.3112431,1.4753761-0.806881,1.7635422l-3.2505293,1.8903923    c0.4956379-0.288166,0.806881-0.8991127,0.806881-1.7751541c0.0115376-1.7404671-1.2218246-3.872942-2.7433538-4.7489815    c-0.7607288-0.4380188-1.4639091-0.4841003-1.959548-0.1959324l3.2505293-1.8788528    c0.4956388-0.2997055,1.1872816-0.2535534,1.959549,0.1844654C14.9371929,29.6440144,16.1590176,31.7764912,16.1590176,33.5285683    z"/><path class="st5" d="M37.2578697,45.5201721c0,0.864502-0.3112411,1.4753799-0.806881,1.763546l-3.2505264,1.8903885    c0.495636-0.288166,0.806881-0.8991127,0.806881-1.7751503c0.0115356-1.7404671-1.2218246-3.8729439-2.7433548-4.7489853    c-0.7607288-0.4380188-1.4639091-0.4841003-1.959549-0.1959305l3.2505302-1.8788528    c0.4956398-0.2997055,1.1872826-0.2535553,1.959549,0.1844635C36.0360489,41.6356201,37.2578697,43.7680969,37.2578697,45.5201721    z"/><polygon class="st99" points="24.6651554,29.2750454 38.2754784,21.3655891 38.2381935,34.5177078 24.6278687,42.4271622   "/><polygon class="st11" points="36.4786682,46.5414581 50.0889893,38.632 50.5,38.869297 36.889679,46.7787552   "/><polygon class="st7" points="36.889679,46.7787552 50.5,38.869297 50.1448517,40.7061234 36.5345306,48.6155777   "/><polygon class="st17" points="24.6782589,24.3245029 24.6678886,29.2770996 24.6575165,33.1003647 24.6575165,33.3490219     24.6472092,35.846096 24.6472092,36.3641548 24.636837,37.514225 24.6264668,42.4253998 11.9548016,35.1104317     6.214685,31.7948513 2.5,29.6568584 2.5518563,11.5455284   "/><polygon class="st18" points="24.6363373,37.7511711 24.6264668,42.4253998 2.5,29.6568584 2.5099342,24.9721985   "/><polygon class="st18" points="24.6791916,24.3242989 38.2895126,16.4148426 38.2754784,21.3655891 24.6651554,29.2750454   "/><polygon class="st10" points="38.2942886,16.4128361 24.6800213,24.3196182 2.5554876,11.5458021 16.1590176,3.6390195   "/><polygon class="st33" points="29.5284405,32.0828629 43.1387634,24.1734085 46.5828209,31.4675388 32.972496,39.3769951   "/><polygon class="st34" points="45.8874359,31.2509918 42.9025383,24.9307804 42.5697708,25.1241665 45.423893,31.1675797     45.8874359,31.2509918   "/><polygon class="st15" points="45.423893,31.1675797 45.423893,31.1675797 33.0775948,38.3425369 33.2083092,38.6193962     45.8874359,31.2509918   "/><polygon class="st36" points="45.421299,31.1628361 40.7484131,33.887825 39.5568542,34.5716324 37.9612617,35.5041618     33.765007,37.939003 33.0811348,38.3431053 30.2215118,32.302536 35.2362747,29.3910561 39.4221535,26.956213     41.0178108,26.0236835 42.2093048,25.329504 42.5719833,25.1222687   "/><polygon class="st15" points="24.6651554,29.2750454 38.2754784,21.3655891 43.1387634,24.1734085 29.5284405,32.0828629   "/><polygon class="st15" points="50.0988197,34.8209648 36.4884262,42.737484 32.9827232,39.3806534 46.5816498,31.4642715   "/><polygon class="st34" points="36.8820076,46.7885513 36.5297012,48.6328011 35.5453796,48.1251144 35.514328,48.104435     35.2656708,47.9801064 35.0273209,47.8557167 29.5255547,44.9960899 29.1939907,44.8199043 28.6448822,44.5298271     27.4740677,43.9184914 24.624752,42.4368553 24.6351242,37.5256805 24.6454945,36.3756065 24.6454945,35.8575516     24.6661739,29.2885551 29.5255547,32.096447 32.9758339,39.3906746 36.3639526,42.6129761 36.4882813,42.7373047     36.4882813,44.3640137 36.4779091,46.5502625   "/><g><path class="st47" d="M35.049778,47.409111c0,0.1554413-0.0103683,0.3005142-0.0207405,0.4351501l-5.5017681-2.859623     l-0.3315639-0.1761856l-0.5491085-0.290081l-1.1708145-0.6113358c0.1139584-1.5852242,1.1397018-2.67313,2.5488663-2.67313     c0.569849,0,1.1604424,0.1761208,1.761343,0.5180588C33.6199379,42.8087578,35.049778,45.2954597,35.049778,47.409111z"/></g><path class="st7" d="M31.2651768,42.6515999c1.5160313,0.8752823,2.7483807,3.0097885,2.7434406,4.7518463    c-0.0049629,1.750473-1.2453651,2.4573631-2.7613964,1.5820808c-1.5233994-0.8795319-2.755743-3.0140648-2.7507801-4.7645378    C28.501379,42.4789314,29.7417793,41.7720642,31.2651768,42.6515999z"/><g><path class="st16" d="M31.2530289,43.4460754c1.1791534,0.6807861,2.1277771,2.3187599,2.1239662,3.6640625     c-0.0006599,1.364193-0.9522285,1.9064636-2.1378059,1.2182808c-1.1727905-0.6771088-2.114954-2.3201027-2.111124-3.671402     C29.1318645,43.3167686,30.0834332,42.774498,31.2530289,43.4460754z M30.8576164,43.6677246     c-0.5387955-0.1451111-0.9210911-0.0191574-1.1918621,0.3924828c0.316988,0.2678375,0.6147499,0.5245743,0.9189625,0.7702751     c0.0150242,0.0120544,0.0294552,0.022007,0.0432701,0.0299797c0.1069183,0.0617294,0.1763554,0.0036469,0.1881294-0.1397934     c0.006794-0.132534,0.0071907-0.2724495,0.0107822-0.4068222C30.8371162,44.1058273,30.8473454,43.8941422,30.8576164,43.6677246      M31.6910095,45.1852226c0.0098209,0.1995277,0.0743961,0.3317757,0.2089691,0.4094734     c0.031847,0.0183868,0.0676079,0.0337143,0.1074867,0.0461464c0.0833664,0.0297012,0.1667404,0.0556984,0.2469101,0.0798683     c0.1924057,0.0594406,0.3848228,0.1152115,0.590065,0.1747131c-0.2643623-0.7169113-0.6478882-1.2887039-1.1761532-1.7522812     l-0.0161057,0.0238914C31.6672554,44.5076714,31.6791325,44.8464508,31.6910095,45.1852226 M32.5366592,48.0411758     c0.311924-0.2108307,0.4701881-0.5620308,0.4909477-1.092186c-0.2727013-0.0394287-0.5293159-0.0916977-0.7763939-0.1126404     c-0.1058884-0.0095024-0.1478806,0.0842705-0.0841675,0.2538223     C32.2849159,47.4016342,32.4092064,47.7131157,32.5366592,48.0411758 M30.2764854,46.002346     c0.0612793-0.1047668,0.0199871-0.2576866-0.1112022-0.3998146c-0.2175789-0.2362595-0.438385-0.4670067-0.6815796-0.7254219     c0.0081406,0.524704,0.1414909,1.0368805,0.4351921,1.5937004c0.077301-0.0955238,0.1449451-0.1818619,0.2125912-0.2681999     C30.1798229,46.1346283,30.2345467,46.0777092,30.2764854,46.002346 M31.254221,47.9349174     c0.2053528,0.1185608,0.4092846,0.1937447,0.617712,0.2277412c-0.165987-0.3207932-0.3159637-0.6286736-0.4884434-0.9237213     c-0.0317535-0.0550079-0.1072006-0.1222649-0.1666241-0.1565628c-0.0302277-0.0174522-0.0562973-0.0263863-0.0703812-0.0208397     c-0.1992321,0.084137-0.3793125,0.2088127-0.5786457,0.3260841     C30.8035259,47.6238441,31.0297222,47.8053055,31.254221,47.9349174 M31.2507973,45.3625641     c-0.2467327-0.1424484-0.4557018-0.0196762-0.4565067,0.2638283c-0.0008144,0.2871933,0.2035847,0.644928,0.4535217,0.7892265     c0.001976,0.0011711,0.0039063,0.0023079,0.0058746,0.0034447c0.2473011,0.1427803,0.453022,0.0305901,0.4570084-0.2525139     c0.0071831-0.2850952-0.2068005-0.6578903-0.4544506-0.800869     C31.2544289,45.3646317,31.2526131,45.3635826,31.2507973,45.3625641 M31.2554626,44.8489342     c-0.0705051-0.0370064-0.1283703-0.0040436-0.1285896,0.0732803c-0.0002308,0.0810051,0.0572605,0.1805916,0.1277542,0.2212906     c0.0704956,0.040699,0.1251469,0.0095444,0.1285801-0.0696068     C31.3834381,44.9928932,31.3259583,44.8896332,31.2554626,44.8489342 M30.9074345,46.4735756     c0.0002232-0.0789566-0.0574303-0.180809-0.122673-0.2184792c-0.0016918-0.0009766-0.0033836-0.0019112-0.0050831-0.0027885     c-0.0704956-0.0407028-0.1283607-0.0077362-0.1285801,0.0695839c-0.0002289,0.0810051,0.0572605,0.180584,0.1277561,0.221283     C30.8461437,46.5820236,30.9039993,46.5527306,30.9074345,46.4735756 M32.0280571,46.3055229     c0.0704842,0.0406952,0.1283493,0.0113983,0.1285782-0.0696068c0.0033417-0.0771599-0.0542336-0.1789665-0.1224403-0.2183456     c-0.00177-0.0010223-0.00354-0.0020065-0.0053139-0.0029259c-0.0672989-0.0388565-0.125164-0.0058899-0.1253834,0.071434     C31.9032669,46.1670799,31.9607582,46.2666664,32.0280571,46.3055229 M30.4483185,45.3934593     c0.0704956,0.0407028,0.1251469,0.0095482,0.1285801-0.0696068c0.0002232-0.0789566-0.0543938-0.1790581-0.1224499-0.2183495     c-0.0017624-0.0010185-0.0035248-0.0019951-0.0053062-0.0029221c-0.0672894-0.0388489-0.1251564-0.0058823-0.1253757,0.0714378     C30.3235378,45.255024,30.3778229,45.3527603,30.4483185,45.3934593 M31.7726002,46.9730797     c0.0002232-0.0789566-0.0543938-0.1790581-0.1224499-0.2183495c-0.0017624-0.0010185-0.0035248-0.0019951-0.0052967-0.0029144     c-0.0672989-0.0388565-0.1251659-0.0058899-0.1253853,0.0714302c-0.0002289,0.0810051,0.0540562,0.1787338,0.1245613,0.2194366     C31.7145157,47.0833778,31.7691669,47.0522346,31.7726002,46.9730797"/></g><polygon class="st15" points="32.4698639,39.4517555 25.4449749,34.9757309 25.3621311,30.3028431 25.1031017,30.1474628     25.1859455,35.0586395 32.6459846,39.8143692   "/><polygon class="st36" points="32.4698639,39.4517555 27.8487682,36.5091629 27.4861546,36.2812462 26.9991474,35.9704247     25.7247467,35.1518517 25.4449749,34.9757309 25.3621311,30.3028431 27.7244396,31.6601505 29.0299549,32.4165573     29.1128616,32.4579811 29.371891,32.9864082 29.5894337,33.4526711   "/><polygon class="st33" points="36.4894676,42.7319984 50.0997887,34.8225403 50.0889893,38.632 36.4786682,46.5414581   "/><polygon class="st100" points="36.4786682,46.5414581 36.4786682,48.586544 36.5345306,48.6155777 36.889679,46.7787552   "/><g><path class="st13" d="M39.2772903,41.822319c0.0932121,0.5568314,0.3507729,0.9135094,0.7362175,1.1261635l-1.9088249,1.1020584     c-0.1036835,0.059864-0.1892433,0.0390511-0.1895218-0.0590363l-0.003418-1.205307     c-0.0002785-0.0981102,0.0848656-0.2244759,0.188549-0.2843399L39.2772903,41.822319z"/></g><g><polygon class="st47" points="46.3551598,39.0344391 46.3556366,39.2026253 40.2267151,42.7411575 40.2262383,42.5729713    "/></g><g><polygon class="st47" points="46.5067482,38.6310616 46.507225,38.7992477 40.0672569,42.5173645 40.0667801,42.3491821    "/></g><g><polygon class="st47" points="46.8159904,37.8278084 46.8164673,37.9959908 39.7605591,42.0697212 39.7600822,41.9015388    "/></g><g><path class="st13" d="M48.4676323,36.5162735c0.1098022-0.0633965,0.1893044-0.0320892,0.1895828,0.0660248l0.003418,1.2053032     c0.0002785,0.0980873-0.0788078,0.2139587-0.1886101,0.2773552l-1.908783,1.1020355     c0.3829422-0.6562805,0.6376801-1.3087349,0.7335129-1.9747124L48.4676323,36.5162735z"/></g><g><path class="st10" d="M48.5258217,38.3359451c0.1097641-0.0633736,0.195385-0.0355988,0.1956635,0.0625153l0.0010529,0.3713913     c0.0002785,0.0981102-0.0848885,0.2315102-0.1946526,0.2948837l-1.4758072,0.8520584     c-0.1097641,0.0633698-0.1954041,0.0285873-0.1956825-0.0695229l-0.0010529-0.3713951     c-0.0002785-0.0981102,0.0849075-0.2245026,0.1946716-0.2878723L48.5258217,38.3359451z"/></g><g><path class="st10" d="M49.6507492,35.8331985c0.1036835-0.0598602,0.1892662-0.0320625,0.1895447,0.0660477l0.003418,1.205307     c0.0002785,0.0980873-0.0848885,0.2174683-0.1885719,0.2773285l-0.6647415,0.3837891     c-0.1036835,0.059864-0.1892433,0.0390511-0.1895218-0.0590363l-0.003418-1.205307     c-0.0002785-0.0981102,0.0848656-0.2244797,0.188549-0.2843399L49.6507492,35.8331985z"/></g><g><path class="st10" d="M39.7508163,43.3542519c0.1097641-0.0633736,0.2014656-0.0391083,0.2017441,0.0590057l0.0010529,0.3713913     c0.0002747,0.0981102-0.0909691,0.2350235-0.2007332,0.2983932l-1.4758072,0.8520584     c-0.1098022,0.0633965-0.1954041,0.0285873-0.1956825-0.0695229l-0.0010529-0.3713951     c-0.0002785-0.0981102,0.0848656-0.2244759,0.1946716-0.2878723L39.7508163,43.3542519z"/></g><g><path class="st94" d="M48.8797379,40.4346008c0.0908318-0.0524406,0.1616898-0.0294571,0.1619186,0.0517349l0.0008698,0.3073349     c0.0002327,0.081192-0.0702438,0.1915817-0.1610756,0.2440262l-1.2212715,0.705101     c-0.0908318,0.0524406-0.161705,0.0236549-0.1619339-0.0575333l-0.0008698-0.3073387     c-0.0002327-0.0811882,0.0702629-0.1857796,0.1610947-0.238224L48.8797379,40.4346008z"/></g><g><path class="st94" d="M39.6242485,45.7146111c0.0908318-0.0524406,0.1667175-0.0323601,0.1669464,0.0488281l0.0008736,0.3073387     c0.0002289,0.081192-0.0752792,0.1944885-0.166111,0.3105774l-1.2212715,0.705101     c-0.0908661-0.0111885-0.1617012-0.0399933-0.1619339-0.1211815l-0.0008698-0.3073387     c-0.0002289-0.0811882,0.0702286-0.1857605,0.1610947-0.238224L39.6242485,45.7146111z"/></g><g><path class="st10" d="M37.5880356,42.7976112c0.0975647-0.0563278,0.1892662-0.0320663,0.1895447,0.0660477l0.003418,1.2053032     c0.0002785,0.0980911-0.0910072,0.2210045-0.1885719,0.2773323l-0.6647415,0.3837891     c-0.1097641,0.0633698-0.1892433,0.0390472-0.1895218-0.0590401l-0.003418-1.2053032     c-0.0002785-0.098114,0.0787888-0.2209702,0.188549-0.2843399L37.5880356,42.7976112z"/></g><g><polygon class="st47" points="46.6583214,38.2347183 46.6587982,38.4028778 39.9200172,42.2935143 39.9195404,42.1253548    "/></g><g><polygon class="st47" points="46.961483,37.4349709 46.9619598,37.603157 39.60112,41.8529396 39.6006432,41.6847572    "/></g><polygon class="st7" points="3.3244174,27.6503735 3.3244174,28.8917656 5.3090711,30.0375767 5.3090711,28.7962379   "/><polygon class="st54" points="45.1933212,42.2596474 45.1933212,43.2853928 41.836319,45.2332954 41.836319,44.1971779   "/><g class="st23"><polygon class="st16" points="39.4221535,26.956213 37.9612617,35.5041618 33.765007,37.939003 35.2362747,29.3910561    "/><polygon class="st16" points="42.2093048,25.329504 40.7484131,33.887825 39.5568542,34.5716324 41.0178108,26.0236835    "/></g><g class="st23"><polygon class="st16" points="29.0299549,32.4165573 26.9991474,35.9704247 25.7247467,35.1518517 27.7244396,31.6601505    "/><polygon class="st16" points="29.5894337,33.4526711 27.8487682,36.5091629 27.4861546,36.2812462 29.371891,32.9864082    "/></g><path class="st19" d="M6.8985362,32.1886063l0.6527524,0.3419189l0.5491409,0.2901115l0.3315563,0.1761398    c0.3108349,0.2175865,0.6320305,0.4248085,0.9428644,0.6216698c1.4920053,0.9843102,2.9943724,1.8650055,4.5278225,2.6213722    c0.0103607-0.134697,0.0518055-0.6631165,0.0518055-0.818531c0-2.1136742-1.4298382-4.6003513-3.2637615-5.6571884    c-0.6009464-0.3419189-1.1915321-0.5180588-1.7613955-0.5180588c-1.3987551,0-2.424509,1.0775604-2.5488424,2.6420937    L6.8985362,32.1886063z"/><path class="st7" d="M12.9080095,35.410881c0,1.7510376-1.24335,2.4556503-2.7561007,1.5852852    C8.62885,36.1154938,7.3958712,33.981102,7.3958712,32.2300644c0.0103712-1.7407284,1.243351-2.4452782,2.7664089-1.5749149    C11.6854019,31.5358219,12.9183807,33.6702156,12.9080095,35.410881z"/><g><path class="st16" d="M10.1541758,31.4544716c1.1791544,0.6807861,2.1277781,2.3187599,2.1239643,3.6640625     c-0.000658,1.364193-0.9522266,1.9064636-2.1378059,1.2182808c-1.1727896-0.6771126-2.114953-2.3201027-2.1111221-3.671402     C8.0330114,31.3251629,8.98458,30.7828922,10.1541758,31.4544716z M9.7587624,31.6761189     c-0.5387955-0.1451111-0.9210911-0.0191555-1.1918612,0.3924847c0.316987,0.2678375,0.614749,0.5245743,0.9189615,0.7702751     c0.0150232,0.0120544,0.0294561,0.0220032,0.0432701,0.0299797c0.1069174,0.0617294,0.1763554,0.0036469,0.1881294-0.1397934     c0.0067949-0.132534,0.0071917-0.2724495,0.0107822-0.406826C9.7382631,32.1142235,9.7484913,31.9025364,9.7587624,31.6761189      M10.5921564,33.1936188c0.0098209,0.1995277,0.0743952,0.3317757,0.2089672,0.4094696     c0.031848,0.0183868,0.0676088,0.0337181,0.1074877,0.0461502c0.0833645,0.0297012,0.1667395,0.0556984,0.2469101,0.0798645     c0.1924057,0.0594444,0.3848219,0.1152153,0.590065,0.1747131c-0.2643614-0.7169075-0.6478882-1.2887001-1.1761522-1.7522812     l-0.0161066,0.0238953C10.5684004,32.5160675,10.5802784,32.854847,10.5921564,33.1936188 M11.4378042,36.049572     c0.3119249-0.2108307,0.4701891-0.5620346,0.4909496-1.0921898c-0.2727013-0.0394249-0.5293179-0.0916939-0.7763948-0.1126404     c-0.1058884-0.0095024-0.1478786,0.0842743-0.0841684,0.2538261     C11.1860619,35.4100304,11.3103514,35.7215118,11.4378042,36.049572 M9.1776314,34.0107422     c0.0612793-0.1047668,0.0199881-0.2576866-0.1112013-0.3998146c-0.2175808-0.2362633-0.438386-0.4670105-0.6815805-0.7254257     c0.0081415,0.524704,0.1414909,1.0368805,0.4351921,1.5937042c0.0773001-0.0955238,0.1449461-0.1818619,0.2125912-0.2681999     C9.0809698,34.1430244,9.1356936,34.0861053,9.1776314,34.0107422 M10.1553669,35.9433136     c0.2053528,0.1185608,0.4092855,0.1937447,0.617713,0.2277412c-0.165988-0.3207932-0.3159647-0.6286774-0.4884443-0.9237251     c-0.0317526-0.0550079-0.1072006-0.122261-0.1666231-0.156559c-0.0302277-0.0174522-0.0562983-0.0263863-0.0703821-0.0208435     c-0.1992311,0.084137-0.3793116,0.2088165-0.5786457,0.326088C9.7046719,35.6322403,9.9308691,35.8136978,10.1553669,35.9433136      M10.1519432,33.3709602c-0.2467327-0.1424522-0.4557018-0.01968-0.4565058,0.2638245     c-0.0008144,0.2871971,0.2035837,0.644928,0.4535208,0.7892303c0.001976,0.0011711,0.0039072,0.0023079,0.0058737,0.0034409     c0.247303,0.1427803,0.4530239,0.0305901,0.4570093-0.2525101c0.0071831-0.285099-0.2068014-0.6578903-0.4544506-0.8008728     C10.1555748,33.3730278,10.153759,33.3719788,10.1519432,33.3709602 M10.1566086,32.8573303     c-0.0705051-0.0370102-0.1283703-0.0040436-0.1285896,0.0732803c-0.0002298,0.0810013,0.0572596,0.1805878,0.1277552,0.2212906     c0.0704947,0.040699,0.1251459,0.0095444,0.1285801-0.0696106     C10.2845831,33.0012894,10.2271042,32.8980293,10.1566086,32.8573303 M9.8085794,34.4819717     c0.0002241-0.0789604-0.0574284-0.1808128-0.1226721-0.2184792c-0.0016909-0.0009766-0.0033827-0.0019112-0.0050831-0.0027924     c-0.0704947-0.040699-0.1283607-0.0077324-0.1285801,0.0695877c-0.0002289,0.0810051,0.0572605,0.1805801,0.1277561,0.221283     C9.7472906,34.5904198,9.8051462,34.5611267,9.8085794,34.4819717 M10.929203,34.3139191     c0.0704861,0.0406952,0.1283503,0.0113945,0.1285801-0.0696068c0.0033388-0.0771599-0.0542336-0.1789665-0.1224413-0.2183495     c-0.001771-0.0010223-0.0035429-0.0020027-0.0053139-0.0029221c-0.0672998-0.0388565-0.125165-0.0058899-0.1253843,0.0714302     C10.8044138,34.1754761,10.8619032,34.2750626,10.929203,34.3139191 M9.3494644,33.4018555     c0.0704956,0.040699,0.1251459,0.0095482,0.1285801-0.0696068c0.0002241-0.0789604-0.0543938-0.1790581-0.1224499-0.2183533     c-0.0017624-0.0010147-0.0035248-0.0019913-0.0053053-0.0029182c-0.0672913-0.0388489-0.1251564-0.0058861-0.1253757,0.0714378     C9.2246838,33.2634201,9.2789698,33.3611565,9.3494644,33.4018555 M10.6737461,34.9814758     c0.0002241-0.0789604-0.0543938-0.1790581-0.1224499-0.2183495c-0.0017624-0.0010185-0.0035248-0.0019951-0.0052967-0.0029144     c-0.0672998-0.0388565-0.125165-0.0058899-0.1253843,0.0714302c-0.0002298,0.0810051,0.0540562,0.17873,0.1245604,0.2194366     C10.6156616,35.091774,10.6703119,35.0606308,10.6737461,34.9814758"/></g><polygon class="st7" points="26.7522125,36.4092865 26.7511578,36.7817535 25.2296467,35.9033089 25.2307034,35.5308418   "/></g><path class="st16" d="M34.0133629,33.4228249c-0.3146858,0.100956-0.5937157,0.273159-0.8252754,0.5046463   c-0.2256165,0.2256889-0.3977814,0.5047188-0.5046463,0.8194046c-0.0297165,0.1008873-0.1662598,0.1008873-0.2018814,0   c-0.2018814-0.6293755-0.7005844-1.1222076-1.3239822-1.3240509c-0.1068649-0.0355873-0.1068649-0.1721306,0-0.2077904   c0.3146534-0.1008835,0.5937195-0.2790298,0.8193359-0.5046463s0.4037247-0.5046463,0.5046463-0.819334   c0.0356216-0.1009579,0.1721649-0.1009579,0.2018814,0c0.1068649,0.3146877,0.2790298,0.5937176,0.5046463,0.819334   c0.2315598,0.2256165,0.5105896,0.4037628,0.8252754,0.5046463C34.1142883,33.2506943,34.1142883,33.3872375,34.0133629,33.4228249   z"/></g></svg>