<?xml version="1.0" ?><svg id="Layer_1" style="enable-background:new 0 0 53 53;" version="1.1" viewBox="0 0 53 53" xml:space="preserve" xmlns="http://www.w3.org/2000/svg" xmlns:xlink="http://www.w3.org/1999/xlink"><style type="text/css">
	.st0{enable-background:new    ;}
	.st1{fill:#2C9A2C;}
	.st2{fill:#5B5E71;}
	.st3{fill:#6DCB60;}
	.st4{fill:#3DB542;}
	.st5{fill:#21201F;}
	.st6{fill:#2D2C2B;}
	.st7{fill:#434240;}
	.st8{fill:#81D672;}
	.st9{fill:#ECF0F1;}
	.st10{fill:#E9E8E6;}
	.st11{fill:#383736;}
	.st12{fill:#FF9C00;}
	.st13{fill:#FFD651;}
	.st14{opacity:0.2;}
	.st15{fill:#F25A5A;}
	.st16{fill:#FFFFFF;}
	.st17{fill:#D6D4D2;}
	.st18{fill:#C4C2C0;}
	.st19{fill:#B2B0AF;}
	.st20{fill:#EFC348;}
	.st21{fill:#3F9AE0;}
	.st22{fill:#343331;}
	.st23{opacity:0.3;}
	.st24{fill:#0074D1;}
	.st25{fill:#DDB040;}
	.st26{fill:#F2F2F2;}
	.st27{fill:#A0A8AA;}
	.st28{fill:#8D9799;}
	.st29{fill:#CEA03A;}
	.st30{opacity:0.25;fill:#FFFFFF;}
	.st31{fill:#909293;}
	.st32{fill:#006CB5;}
	.st33{fill:#DD4A4A;}
	.st34{fill:#CC4848;}
	.st35{fill:#C9C8C6;}
	.st36{fill:#B5E5F4;}
	.st37{fill:#005E87;}
	.st38{opacity:0.4;}
	.st39{fill:#41403E;}
	.st40{fill:none;}
	.st41{fill:#464957;}
	.st42{fill:#BB4545;}
	.st43{fill:#A2A4A5;}
	.st44{fill:#CFD2D3;}
	.st45{fill:#FFE2A9;}
	.st46{fill:#B6B9BA;}
	.st47{fill:#C44141;}
	.st48{fill:#82C6E0;}
	.st49{fill:#FC7E7E;}
	.st50{fill:#D4D6D6;}
	.st51{opacity:0.25;}
	.st52{fill:#1E1E1D;}
	.st53{fill:#B4B3B1;}
	.st54{fill:#D4DAE8;}
	.st55{fill:#416E84;}
	.st56{fill:#474B59;}
	.st57{fill:#7E8A8C;}
	.st58{fill:#6D797A;}
	.st59{fill:#88722B;}
	.st60{fill:#7D7C7B;}
	.st61{fill:#C5A00C;}
	.st62{opacity:0.3;fill:#748BFD;}
	.st63{fill:#414143;}
	.st64{opacity:0.6;}
	.st65{fill:#EFAC41;}
	.st66{fill:#FED57A;}
	.st67{opacity:0.5;}
	.st68{fill:#32586B;}
	.st69{opacity:0.7;fill:#B5E5F4;}
	.st70{fill:#494846;}
	.st71{fill:#B8B6B5;}
	.st72{opacity:0.15;fill:#E9E8E6;}
	.st73{fill:#E63044;}
	.st74{fill:#6EBA6E;}
	.st75{fill:#FA5168;}
	.st76{fill:#BAC1CE;}
	.st77{opacity:0.15;}
	.st78{fill:#0E90D8;}
	.st79{fill:#6C6F76;}
	.st80{fill:#787979;}
	.st81{fill:#5B6868;}
	.st82{fill:#4562EF;}
	.st83{fill:#576CFB;}
	.st84{fill:#748BFD;}
	.st85{fill:#F1C40F;}
	.st86{fill:#00649B;}
	.st87{fill:#898887;}
	.st88{fill:#813030;}
	.st89{opacity:0.5;fill:#82C6E0;}
	.st90{opacity:0.1;}
	.st91{opacity:0.15;fill:#FFFFFF;}
	.st92{clip-path:url(#SVGID_2_);enable-background:new    ;}
	.st93{opacity:0.2;fill:#FFFFFF;}
	.st94{fill:#F9BB4A;}
	.st95{fill:#4C7891;}
	.st96{opacity:0.3;fill:#FFFFFF;}
	.st97{fill:#D14E4E;}
	.st98{fill:#518696;}
	.st99{fill:#C3A12E;}
	.st100{fill:#3F434F;}
	.st101{fill:#363A44;}
	.st102{fill:#75CA75;}
	.st103{fill:#E4E8F4;}
	.st104{fill:#506A47;}
	.st105{fill:#3A3937;}
	.st106{fill:#C5A53E;}
	.st107{fill:#D4D2D0;}
	.st108{fill:#B8B7B5;}
	.st109{fill:#A5A4A2;}
	.st110{fill:#0059A1;}
	.st111{fill:#0070CA;}
	.st112{fill:#0064B4;}
	.st113{fill:#989694;}
	.st114{fill:#F34858;}
	.st115{opacity:0.1;fill:#FFFFFF;}
	.st116{fill:#8A9193;}
	.st117{fill:#B4B3B2;}
	.st118{fill:#3B3A38;}
	.st119{fill:#242322;}
</style><g><g><g><g><path class="st6" d="M11.3833132,34.3328247l5.2874479-3.3914242l-3.7429123-5.3495808      c-0.7931318-0.4508419-1.5027323-0.4925709-2.012084-0.2003994l-3.531373,2.053812      c0.5092015-0.3005619,1.2272682-0.2504425,2.0120087,0.200325c1.5611677,0.9016838,2.8217726,3.0806046,2.8134575,4.8755836      C12.2098579,33.4145088,11.8925896,34.0406532,11.3833132,34.3328247z"/><path class="st6" d="M29.3671608,44.7137413l5.2874489-3.3914261l-3.7429142-5.3495827      c-0.7931309-0.45084-1.5027332-0.492569-2.0120831-0.2003975l-3.531374,2.0538101      c0.509201-0.30056,1.2272682-0.2504425,2.0120087,0.200325c1.5611668,0.9016838,2.8217735,3.0806046,2.8134575,4.8755836      C30.1937046,43.7954254,29.8764362,44.4215698,29.3671608,44.7137413z"/><g><g><polygon class="st24" points="37.2519798,19.0754261 31.6418915,22.3357639 21.5346565,28.2156658 3.4979069,17.7932339         2.5085449,17.2198467 18.2257996,8.0907898       "/><g><g><polygon class="st86" points="4.7458286,17.2198467 10.7559042,20.6893368 18.2257996,16.3531761 18.2257996,9.3949108                   "/><polygon class="st32" points="18.2257996,9.3949108 18.2257996,16.3531761 29.0057201,22.5685215 35.014698,19.0754261                   "/></g><polygon class="st37" points="29.0057201,22.5685215 18.2257996,16.3531761 10.7559042,20.6893368 21.5346565,26.9115448                 "/></g><polygon class="st98" points="21.5397663,28.2117004 37.252758,23.9159088 37.240799,28.1340866 21.5278072,37.26548               "/><polygon class="st32" points="21.5378284,28.2144604 21.5281849,37.2652359 2.5,26.2775307 2.5032206,23.6038055         2.5096421,19.852232 2.5128629,17.226757       "/><line class="st40" x1="32.5849037" x2="22.6688538" y1="34.7603149" y2="29.0377884"/><polygon class="st86" points="50.5,29.5629845 50.4888153,35.7720566 34.771492,44.9011116 34.7939987,38.6920395       "/><polygon class="st7" points="50.4894409,34.4569359 50.4844208,35.7671776 34.7727242,44.8961792 34.7777481,43.5859337               "/><path class="st21" d="M45.4388618,16.4491043l-15.7116947,9.1289272        c-0.1759644-0.3167667-0.4224014-0.5632038-0.6922588-0.7157497l-7.1694603-4.142025        c-0.0821457-0.0469818-0.1525459-0.0469818-0.1994553-0.0117455l15.7116928-9.1406736        c0.0469093-0.0234909,0.1173096-0.0234909,0.1994553,0.0234194l7.1693916,4.1420965        C45.0164604,15.8859005,45.262825,16.1322651,45.4388618,16.4491043z"/><path class="st24" d="M34.7939987,38.6920395l-0.0225067,6.2171707l-2.2822304-1.3153763l-6.97048-4.0248985        l-3.9911404-2.3047371l0.0112553-9.0503502l0.0336914-7.3190002c0-0.1798534,0.1349068-0.2698135,0.2923203-0.1686687        l7.1728401,4.1373692c0.2585602,0.1573467,0.5059357,0.3934669,0.6857872,0.7194805        c2.0349236,3.41782,3.7100735,7.510107,4.9692478,12.4007168        C34.7602386,38.2310524,34.7939987,38.4784279,34.7939987,38.6920395z"/><path class="st21" d="M22.9317436,28.8861179l0.0214081-6.2402954l-0.2618523-0.1513081l-0.02244,6.5432529        l9.9160595,5.7224903c-0.043026-0.1305161-0.0922241-0.2523842-0.1360054-0.3818703L22.9317436,28.8861179z"/><path class="st7" d="M32.4442482,34.3748169c-3.8153934-2.1998787-9.907629-5.7147999-9.5112705-5.4864349l0.022438-6.2396774        c10.0821438,5.8174839,1.3269157,0.7648487,5.5201988,3.1816998c0.1011448,0.0561981,0.2023602,0.1685982,0.2698135,0.3035736        C30.3028412,28.7691517,31.4782848,31.5207062,32.4442482,34.3748169z"/><path class="st21" d="M50.5,29.5629845l-15.7060013,9.129055c0-0.2136116-0.0337601-0.4609871-0.1012154-0.7082939        c-1.2591743-4.8906097-2.9343243-8.9828968-4.9692478-12.4007168l15.7172565-9.1290569        c2.0237389,3.4065685,3.7101402,7.510107,4.9693146,12.3894634C50.477562,29.1019955,50.5,29.349371,50.5,29.5629845z"/><path class="st24" d="M48.9822655,25.5605907c-1.0118713-3.1480083-2.2597923-5.9923725-3.698822-8.4882851        l-0.3179817,0.1845188c1.3614883,2.4173431,2.5512886,5.1428585,3.519722,8.1556835L48.9822655,25.5605907        L48.9822655,25.5605907z"/><path class="st32" d="M48.4851837,25.412508L48.4851837,25.412508l-14.5497589,8.4534931        c0.0411034,0.1228981,0.0874252,0.2388649,0.1277733,0.3626556l14.9190674-8.668066L48.4851837,25.412508z"/><path class="st7" d="M48.4848671,25.4161205l-4.5599976,2.6500244l-4.1099854,2.3900146l-1.0200195,0.5899658        l-4.8599854,2.8200092c-0.3900146-1.1799927-0.8200073-2.3099995-1.2700195-3.3999653        c-0.6999493-1.6900024-1.4799786-3.2600098-2.3299541-4.7200317l4.130003-2.3999634l7.3599854-4.2700195l1.0299683-0.6000366        l2.1100464-1.2199707c0.1099854,0.2000122,0.2399902,0.4099731,0.3499756,0.6300049        c0.2700195,0.5100098,0.539978,1.0299683,0.789978,1.5599976        C46.9948769,21.2861156,47.7948647,23.2861156,48.4848671,25.4161205z"/><line class="st40" x1="48.9822693" x2="34.0632248" y1="25.560585" y2="34.2286949"/><g><g><polygon class="st13" points="38.6009827,41.7639008 38.6086693,42.2736893 36.8061218,43.3143921 36.7984352,42.8045998                   "/><polygon class="st13" points="49.435421,35.5127792 49.4431076,36.0225677 47.6490822,37.0583496 47.6413956,36.5485611                   "/></g><polygon class="st16" points="45.0058174,38.0681381 45.013504,38.5779266 41.2357254,40.7590294 41.2280388,40.2492409                 "/></g><path class="st16" d="M49.9281502,30.6664772c0.2100716,0.5479126,0.1579056,1.85112,0.1474495,3.2368431        c-0.9040413,0.6624107-4.1662636,2.6160583-7.4296112,4.5001526c-3.2633209,1.884079-6.5277443,3.6985893-7.4361801,4.0826149        c-0.0182686-1.3691406-0.1687851-2.5943909,0.0374985-3.3826866c0.0534744-0.0308723,1.2163582-0.6954498,1.8623848-1.0684357        c0.6316643-0.3646889,1.1922379-0.1938896,1.2217445-0.1849022l8.6136742-4.9731064        c0.0289993-0.0427666,0.5799561-0.8553085,1.2116165-1.2200012        C48.8027534,31.2839737,49.8746719,30.6973515,49.9281502,30.6664772z"/><path class="st15" d="M49.1923103,31.9789066c0.1291962-0.0745907,0.2299995-0.0254116,0.2304192,0.1230717        l0.0040703,1.4351616c0.0003738,0.1319809-0.099823,0.2972336-0.2290192,0.3718224l-1.7945175,1.036068        c-0.1148567,0.0663147-0.2084808,0.0129623-0.2088547-0.1190224l-0.0040703-1.4351578        c-0.0004196-0.1484833,0.0925941-0.3095627,0.2074547-0.3758774L49.1923103,31.9789066z"/><path class="st15" d="M37.8724976,38.5144043c0.1148338-0.0662994,0.2156372-0.0171204,0.2160568,0.1313629        l0.0040703,1.4351578c0.0003738,0.1319847-0.0998192,0.2972374-0.2146568,0.3635368l-1.7945175,1.0360641        c-0.1292191,0.074604-0.2300224,0.0253983-0.2303963-0.1065826l-0.0040665-1.4351616        c-0.0004234-0.1484795,0.0997734-0.3137054,0.2289925-0.3883095L37.8724976,38.5144043z"/><path class="st18" d="M46.6714935,33.6441422c-0.0176849,0.1015053-0.3537216,2.0300598-1.6022224,2.9243736        l-4.8882637,2.8222427c-1.249485,0.5478973-1.5885162-0.9909096-1.6063614-1.0718994L46.6714935,33.6441422z"/><path class="st13" d="M48.3065681,32.7696648c0.3323822-0.1919022,0.6078835-0.0349007,0.6089668,0.3470345        c0.0010376,0.3653221-0.2726784,0.8393555-0.6050606,1.0312576c-0.3323326,0.1918716-0.6078377,0.0349274-0.6088715-0.3303947        C47.7005196,33.4356308,47.9742355,32.9615364,48.3065681,32.7696648z"/><path class="st13" d="M36.9688034,39.3111153c0.3323822-0.1919022,0.6078835-0.0349007,0.6089668,0.3470306        c0.0010376,0.3653221-0.2726784,0.8393555-0.6050606,1.0312576c-0.3323326,0.1918716-0.6078339,0.0349274-0.6088715-0.3303947        C36.3627548,39.9770775,36.6364708,39.5029869,36.9688034,39.3111153z"/><g><path class="st7" d="M42.6185989,36.5020752c0.2261543-0.1305695,0.4089394-0.0191994,0.4096565,0.2334518         c0.0007362,0.2598724-0.1808395,0.5743752-0.4069977,0.7049446         c-0.2198715,0.1269455-0.4026337,0.0227928-0.4033737-0.2370758         C42.2171707,36.9507446,42.3987236,36.6290207,42.6185989,36.5020752z"/></g></g></g><path class="st86" d="M31.1706867,42.828846l-7.4560013-4.3043633c0.372551-1.2798958,1.3874969-1.8652229,2.3934746-1.8652229      c0.5698395,0,1.1616898,0.1752739,1.7584362,0.5192947C29.7041054,38.2391548,31.1421452,40.7076454,31.1706867,42.828846z"/><ellipse class="st7" cx="27.3682041" cy="41.2722321" rx="2.3066494" ry="3.9822826" transform="matrix(0.8646048 -0.5024526 0.5024526 0.8646048 -17.0318146 19.3392887)"/><g><path class="st10" d="M27.3748569,38.9316406c-1.1261272-0.6501884-2.0399303-0.1294479-2.0436363,1.1645317       c-0.0036221,1.2939796,0.9042873,2.8665657,2.0303288,3.5166702c1.1261272,0.6501923,2.0399303,0.129364,2.0436363-1.1645317       C29.4088078,41.1543312,28.5008984,39.581749,27.3748569,38.9316406z M26.5414009,41.864994       c-0.0477543,0.0043793-0.0992985-0.0101929-0.1500835-0.0394173c-0.1013184-0.0585327-0.1990147-0.1758537-0.2542648-0.3173447       c-0.0789165-0.2053337-0.0306568-0.3875046,0.1124363-0.3962631c0.0463219-0.0052223,0.0975285,0.0090942,0.1480618,0.0383186       c0.1010647,0.0583687,0.199688,0.1761932,0.252243,0.3160858       C26.7326679,41.6740646,26.6844921,41.8562355,26.5414009,41.864994z M26.6524887,40.5136604       c-0.0538177,0.0797577-0.1543789,0.0827026-0.2566242,0.0235786c-0.0494366-0.0284653-0.0992966-0.0715027-0.1444397-0.1273422       c-0.1425018-0.1781273-0.1895828-0.4107475-0.1097393-0.5290794c0.0558376-0.0774002,0.1538715-0.0816116,0.2552738-0.0230751       c0.050703,0.0292244,0.1022453,0.0741997,0.1497459,0.1335754       C26.6892929,40.1649818,26.7362881,40.4021492,26.6524887,40.5136604z M27.3645821,43.0343246       c-0.162632-0.0939064-0.2970505-0.3267784-0.296545-0.5136681c0.0005054-0.1868858,0.135849-0.2594833,0.298481-0.1655769       c0.1627159,0.0939064,0.2931767,0.3199577,0.2926712,0.5068436       C27.6585999,43.0488129,27.527298,43.128231,27.3645821,43.0343246z M27.3719082,40.454113       c-0.162632-0.0939064-0.2971325-0.3222313-0.2965431-0.5091171c0.0005054-0.1868896,0.135849-0.2640343,0.298481-0.1701279       s0.2931747,0.3245049,0.2925854,0.5113907C27.665926,40.4731483,27.5346241,40.5480194,27.3719082,40.454113z        M28.5927849,42.9261017c-0.0531445,0.0788307-0.1521053,0.0826187-0.2543488,0.0235825       c-0.0511227-0.0295639-0.1030884-0.074707-0.150589-0.1341667c-0.138628-0.1713066-0.1856232-0.408474-0.1058655-0.5222588       c0.0558376-0.0773125,0.1538715-0.0816078,0.2552738-0.0230751c0.050703,0.0293083,0.1022453,0.0741997,0.1497459,0.1336594       C28.6256313,42.5751495,28.6765842,42.8146744,28.5927849,42.9261017z M28.4890232,41.7017708       c-0.0466576,0.0028648-0.097023-0.0119591-0.1465454-0.0405922c-0.1026649-0.0592918-0.2019634-0.1776237-0.2578011-0.3206329       c-0.0788326-0.2054176-0.0306568-0.3875885,0.1084766-0.3986206c0.0476685-0.0044632,0.0997181,0.0103607,0.1508408,0.0399208       c0.1022453,0.0590401,0.2008686,0.1768646,0.2534218,0.3167572       C28.6802902,41.5108414,28.6281586,41.6861916,28.4890232,41.7017708z"/><path class="st18" d="M27.6926899,41.5470619c0,0.2112808-0.1445637,0.2891273-0.3224506,0.1890182       c-0.1779556-0.1000404-0.3225174-0.3558426-0.3225174-0.5559921c0-0.211277,0.1445618-0.2891235,0.3225174-0.1890182       C27.5592575,41.0911789,27.7038193,41.3469124,27.6926899,41.5470619z"/></g><path class="st86" d="M13.1868401,32.4479332l-7.4560018-4.3043633c0.3725514-1.2798977,1.3874965-1.8652248,2.393476-1.8652248      c0.5698376,0,1.1616888,0.1752739,1.7584352,0.5192947C11.7202597,27.858242,13.1582994,30.3267307,13.1868401,32.4479332z"/><ellipse class="st7" cx="9.3843565" cy="30.8913193" rx="2.3066494" ry="3.9822826" transform="matrix(0.8646048 -0.5024526 0.5024526 0.8646048 -14.2508259 8.8977318)"/><g><path class="st10" d="M9.3910103,28.5507278c-1.1261263-0.6501904-2.0399303-0.1294479-2.0436363,1.1645317       c-0.0036216,1.2939796,0.9042873,2.8665657,2.0303288,3.5166702c1.1261263,0.6501923,2.0399303,0.129364,2.0436363-1.1645317       C11.4249601,30.7734184,10.5170527,29.2008343,9.3910103,28.5507278z M8.5575533,31.4840794       C8.5098,31.4884605,8.4582567,31.4738884,8.4074707,31.444664c-0.1013184-0.0585327-0.1990156-0.1758537-0.2542648-0.3173466       c-0.0789156-0.2053318-0.0306568-0.3875027,0.1124353-0.3962631c0.0463219-0.0052204,0.0975294,0.0090961,0.1480618,0.0383224       c0.1010656,0.0583649,0.1996899,0.1761913,0.252244,0.316082C8.7488203,31.2931499,8.7006464,31.4753208,8.5575533,31.4840794z        M8.668642,30.1327457c-0.0538177,0.0797577-0.1543779,0.0827045-0.2566233,0.0235825       c-0.0494385-0.0284672-0.0992975-0.0715046-0.1444397-0.1273441c-0.1425028-0.1781292-0.1895828-0.4107475-0.1097412-0.5290794       c0.0558395-0.0774002,0.1538725-0.0816116,0.2552757-0.023077c0.0507011,0.0292244,0.1022453,0.0741997,0.1497459,0.1335754       C8.7054462,29.7840672,8.7524424,30.0212364,8.668642,30.1327457z M9.3807354,32.6534119       c-0.162632-0.0939064-0.2970495-0.3267784-0.2965441-0.5136681c0.0005045-0.1868858,0.135849-0.2594852,0.298481-0.1655788       c0.1627159,0.0939083,0.2931747,0.3199596,0.2926693,0.5068455       C9.6747522,32.6679001,9.5434513,32.7473183,9.3807354,32.6534119z M9.3880625,30.0732002       c-0.162632-0.0939064-0.2971334-0.3222313-0.2965441-0.509119c0.0005054-0.1868877,0.135849-0.2640343,0.298481-0.1701279       c0.162632,0.0939083,0.2931747,0.3245068,0.2925854,0.5113945C9.6820793,30.0922356,9.5507784,30.1671085,9.3880625,30.0732002       z M10.6089382,32.5451889c-0.0531445,0.0788307-0.1521044,0.0826187-0.2543497,0.0235825       c-0.0511217-0.0295639-0.1030865-0.074707-0.150588-0.1341667c-0.138628-0.1713066-0.1856241-0.408474-0.1058664-0.5222588       c0.0558386-0.0773144,0.1538725-0.0816097,0.2552757-0.0230751c0.0507011,0.0293083,0.1022453,0.0741978,0.1497459,0.1336594       C10.6417847,32.1942368,10.6927385,32.4337616,10.6089382,32.5451889z M10.5051765,31.320858       c-0.0466585,0.0028648-0.097023-0.0119591-0.1465454-0.0405941c-0.1026659-0.0592918-0.2019634-0.1776237-0.257802-0.320631       c-0.0788317-0.2054176-0.0306568-0.3875885,0.1084776-0.3986206c0.0476694-0.0044632,0.0997181,0.0103588,0.1508408,0.0399208       c0.1022453,0.0590401,0.2008686,0.1768646,0.2534227,0.3167572       C10.6964445,31.1299286,10.644311,31.3052769,10.5051765,31.320858z"/><path class="st18" d="M9.7088423,31.1661491c0,0.2112789-0.1445627,0.2891254-0.3224497,0.1890163       c-0.1779556-0.1000404-0.3225183-0.3558407-0.3225183-0.5559902c0-0.2112789,0.1445627-0.2891254,0.3225183-0.1890182       C9.5754099,30.7102661,9.7199726,30.9659996,9.7088423,31.1661491z"/></g><g><path class="st15" d="M4.4111843,21.4609718l-0.0064411,2.731638c0,0.2799187-0.1994824,0.3957443-0.4440141,0.2541733       l-1.4575086-0.8429775l0.0064216-3.7515736l1.4639499,0.846199       C4.2181239,20.8400002,4.4144049,21.1810532,4.4111843,21.4609718z"/></g></g><path class="st16" d="M36.2197037,29.1588821c-0.3459854,0.1087303-0.6524467,0.3064613-0.9094887,0.5635052     c-0.2471504,0.2372532-0.4349861,0.5635052-0.5734024,0.8996544c-0.0197296,0.1284618-0.1779404,0.1284618-0.2174606,0     c-0.227417-0.7019234-0.7810287-1.2456379-1.4729958-1.4631596c-0.1087914-0.0494175-0.1087914-0.2075672,0-0.2273579     c0.3459816-0.1186275,0.6722374-0.3361492,0.919384-0.5734024c0.2570457-0.2471485,0.4448204-0.5635052,0.5536118-0.919384     c0.0395203-0.1087303,0.197731-0.1087303,0.2174606,0c0.1384163,0.3558788,0.326252,0.6722355,0.5734024,0.919384     c0.2570419,0.2372532,0.5635033,0.4547749,0.9094887,0.5734024     C36.3482246,28.9513149,36.3482246,29.1094646,36.2197037,29.1588821z"/></g><g class="st77"><path class="st16" d="M41.824894,19.0761547l-3.0300293,11.9699707l-4.8599854,2.8200092     c-0.3900146-1.1799927-0.8200073-2.3099995-1.2700195-3.3999653l1.8000488-7.1199951L41.824894,19.0761547z"/><path class="st16" d="M46.1048622,19.4461498l-2.1799927,8.6199951l-4.1099854,2.3900146l3.039978-11.9800415     l2.1100464-1.2199707c0.1099854,0.2000122,0.2399902,0.4099731,0.3499756,0.6300049     C45.5849037,18.396162,45.8548622,18.9161205,46.1048622,19.4461498z"/></g></g></g></svg>